<?xml version="1.0" encoding="utf-8"?>
<!-- Generator: Adobe Illustrator 26.3.1, SVG Export Plug-In . SVG Version: 6.00 Build 0)  -->
<svg version="1.1" id="eUtfKsV2qQa1" text-rendering="geometricPrecision" shape-rendering="geometricPrecision"
	 xmlns="http://www.w3.org/2000/svg" xmlns:xlink="http://www.w3.org/1999/xlink" x="0px" y="0px" viewBox="0 0 36 36"
	 style="enable-background:new 0 0 36 36;" xml:space="preserve">
<style type="text/css">
	.st0{fill:url(#SVGID_1_);}
	.st1{fill:none;stroke:url(#SVGID_00000140005735462323125360000008776269350367775109_);stroke-opacity:0.5;}
	.st2{fill:url(#SVGID_00000065761188094380342140000008514117382796607138_);}
	.st3{fill:none;stroke:url(#SVGID_00000062903847070182230000000006172421723757458061_);stroke-opacity:0.5;}
	.st4{fill:url(#SVGID_00000137812910982119333770000011327864754882987136_);}
	.st5{fill:none;stroke:url(#SVGID_00000047748719490935059190000012562103749580327076_);stroke-opacity:0.5;}
</style>
<g>
	
		<linearGradient id="SVGID_1_" gradientUnits="userSpaceOnUse" x1="62.1289" y1="-104.4014" x2="70.7744" y2="-115.791" gradientTransform="matrix(1 0 0 -1 -50 -102)">
		<stop  offset="0" style="stop-color:#6FB8FF"/>
		<stop  offset="1" style="stop-color:#1E90FF"/>
	</linearGradient>
	<path class="st0" d="M23,7.5c0,3.9-3.1,7-7,7s-7-3.1-7-7c0-3.9,3.1-7,7-7S23,3.6,23,7.5z"/>
	
		<linearGradient id="SVGID_00000006669928689024152700000006248866962256657043_" gradientUnits="userSpaceOnUse" x1="62.1788" y1="-103.3876" x2="69.6788" y2="-115.3876" gradientTransform="matrix(1 0 0 -1 -50 -102)">
		<stop  offset="0" style="stop-color:#FFFFFF"/>
		<stop  offset="1" style="stop-color:#FFFFFF;stop-opacity:0"/>
	</linearGradient>
	<path style="fill:none;stroke:url(#SVGID_00000006669928689024152700000006248866962256657043_);stroke-opacity:0.5;" d="M22.5,7.5
		c0,3.6-2.9,6.5-6.5,6.5s-6.5-2.9-6.5-6.5C9.5,3.9,12.4,1,16,1S22.5,3.9,22.5,7.5z"/>
	
		<linearGradient id="SVGID_00000149371641798223412890000010876130783473232050_" gradientUnits="userSpaceOnUse" x1="77.5643" y1="-120.8064" x2="77.3816" y2="-138.5934" gradientTransform="matrix(1 0 0 -1 -50 -102)">
		<stop  offset="0" style="stop-color:#6FB8FF"/>
		<stop  offset="1" style="stop-color:#1E90FF"/>
	</linearGradient>
	<path style="fill:url(#SVGID_00000149371641798223412890000010876130783473232050_);" d="M26.9,18.9c0.3-0.5,0.9-0.5,1.2,0l2.5,4.5
		l4.9,1.1c0.5,0.1,0.7,0.8,0.4,1.2l-3.3,3.9l0.5,5.2c0,0.5-0.5,0.9-1,0.7l-4.6-2.1l-4.6,2.1c-0.5,0.2-1-0.2-1-0.7l0.5-5.2l-3.3-3.9
		c-0.3-0.4-0.1-1.1,0.4-1.2l4.9-1.1L26.9,18.9z"/>
	
		<linearGradient id="SVGID_00000009580366553331141240000016411979738174264489_" gradientUnits="userSpaceOnUse" x1="77.499" y1="-120.5" x2="77.499" y2="-137.4999" gradientTransform="matrix(1 0 0 -1 -50 -102)">
		<stop  offset="0" style="stop-color:#FFFFFF"/>
		<stop  offset="1" style="stop-color:#FFFFFF;stop-opacity:0"/>
	</linearGradient>
	<path style="fill:none;stroke:url(#SVGID_00000009580366553331141240000016411979738174264489_);stroke-opacity:0.5;" d="
		M30.2,23.6l0.1,0.2l0.2,0l4.9,1.1c0.1,0,0.1,0.1,0.1,0.1c0,0.1,0,0.2,0,0.2l-3.3,3.9L32,29.4l0,0.2l0.5,5.2c0,0.1,0,0.2-0.1,0.2
		c-0.1,0-0.1,0-0.2,0l-4.6-2.1l-0.2-0.1l-0.2,0.1L22.7,35c-0.1,0-0.1,0-0.2,0c-0.1,0-0.1-0.1-0.1-0.2l0.5-5.2l0-0.2l-0.1-0.2
		l-3.3-3.9c-0.1-0.1-0.1-0.1,0-0.2c0-0.1,0.1-0.1,0.1-0.1l4.9-1.1l0.2,0l0.1-0.2l2.5-4.5c0-0.1,0.1-0.1,0.2-0.1s0.1,0,0.2,0.1
		L30.2,23.6z"/>
	
		<linearGradient id="SVGID_00000174560042439183660580000003665469322955579826_" gradientUnits="userSpaceOnUse" x1="57.3977" y1="-121.8452" x2="78.3354" y2="-135.7564" gradientTransform="matrix(1 0 0 -1 -50 -102)">
		<stop  offset="0" style="stop-color:#6FB8FF"/>
		<stop  offset="1" style="stop-color:#1E90FF"/>
	</linearGradient>
	<path style="fill:url(#SVGID_00000174560042439183660580000003665469322955579826_);" d="M9.7,15.7c0.3-0.1,0.7-0.1,1,0.2
		c1.5,1.2,3.3,1.8,5.3,1.8c2,0,3.8-0.7,5.3-1.8c0.3-0.2,0.7-0.3,1-0.2c1,0.4,1.9,0.9,2.7,1.4c0.2,0.2,0.3,0.5,0.1,0.7l0,0l-1.9,3.3
		c-0.1,0.2-0.4,0.4-0.6,0.5l-3.6,0.8c-2.1,0.5-2.7,2.9-1.4,4.4l2.5,2.9c0.2,0.2,0.3,0.5,0.2,0.7l-0.1,1.2
		c-6.6,0.5-13.3-0.2-19.8-2.2C0.2,29.6,0,29.3,0,29C0.2,23,4.2,17.9,9.7,15.7z"/>
	
		<linearGradient id="SVGID_00000139268828116408297900000014084826576232796815_" gradientUnits="userSpaceOnUse" x1="62.6269" y1="-117.6449" x2="62.6269" y2="-134.0218" gradientTransform="matrix(1 0 0 -1 -50 -102)">
		<stop  offset="0" style="stop-color:#FFFFFF"/>
		<stop  offset="1" style="stop-color:#FFFFFF;stop-opacity:0"/>
	</linearGradient>
	<path style="fill:none;stroke:url(#SVGID_00000139268828116408297900000014084826576232796815_);stroke-opacity:0.5;" d="M9.9,16.2
		c0.1-0.1,0.3,0,0.5,0.1c1.6,1.2,3.5,1.9,5.6,1.9s4-0.7,5.6-1.9c0.2-0.1,0.4-0.2,0.5-0.1c0.9,0.4,1.8,0.8,2.7,1.4c0,0,0,0,0,0
		c0,0,0,0,0,0c0,0,0,0,0,0L22.9,21c-0.1,0.1-0.2,0.2-0.3,0.2L19,22c-2.5,0.6-3.2,3.5-1.7,5.2l2.5,2.9c0.1,0.1,0.1,0.2,0.1,0.4
		l-0.1,0.8c-6.4,0.5-12.9-0.3-19.1-2.2c-0.1,0-0.1-0.1-0.1-0.2C0.7,23.3,4.5,18.3,9.9,16.2z"/>
</g>
</svg>
