<?xml version="1.0" encoding="utf-8"?>
<!-- Generator: Adobe Illustrator 26.3.1, SVG Export Plug-In . SVG Version: 6.00 Build 0)  -->
<svg version="1.1" id="eUtfKsV2qQa1" text-rendering="geometricPrecision" shape-rendering="geometricPrecision"
	 xmlns="http://www.w3.org/2000/svg" xmlns:xlink="http://www.w3.org/1999/xlink" x="0px" y="0px" viewBox="0 0 36 36"
	 style="enable-background:new 0 0 36 36;" xml:space="preserve">
<style type="text/css">
	.st0{fill-rule:evenodd;clip-rule:evenodd;fill:url(#SVGID_1_);}
	.st1{fill-rule:evenodd;clip-rule:evenodd;fill:#FFFFFF;filter:url(#Adobe_OpacityMaskFilter);}
	
		.st2{mask:url(#path-1-inside-1_3982_344_00000067932054709634795010000006026288523840119997_);fill:url(#SVGID_00000132795302891282375430000010599007867354839460_);fill-opacity:0.5;}
	.st3{fill-rule:evenodd;clip-rule:evenodd;fill:url(#SVGID_00000046318694159711720510000001830774952863096494_);}
	
		.st4{fill-rule:evenodd;clip-rule:evenodd;fill:#FFFFFF;filter:url(#Adobe_OpacityMaskFilter_00000017501640527308659200000013937636482868937861_);}
	
		.st5{mask:url(#path-3-inside-2_3982_344_00000110457858352956455270000014919447445192428980_);fill:url(#SVGID_00000078009057574935436330000003272348611456930696_);fill-opacity:0.5;}
	.st6{fill-rule:evenodd;clip-rule:evenodd;fill:url(#SVGID_00000003823558937367298440000004790858892572805522_);}
	
		.st7{fill-rule:evenodd;clip-rule:evenodd;fill:#FFFFFF;filter:url(#Adobe_OpacityMaskFilter_00000030464951130449077090000007107983634882128292_);}
	
		.st8{mask:url(#path-5-inside-3_3982_344_00000065762292678289020930000005203528108031530175_);fill:url(#SVGID_00000008859847587912430630000009923941399904824247_);fill-opacity:0.5;}
</style>
<linearGradient id="SVGID_1_" gradientUnits="userSpaceOnUse" x1="58.5932" y1="-102.4191" x2="58.2939" y2="-125.2295" gradientTransform="matrix(1 0 0 -1 -50 -102)">
	<stop  offset="0" style="stop-color:#6FB8FF"/>
	<stop  offset="1" style="stop-color:#1E90FF"/>
</linearGradient>
<path class="st0" d="M0,1.9C0,0.9,0.8,0,1.9,0h13.3c1,0,1.9,0.8,1.9,1.9v1.9c0,0.3-0.3,0.6-0.6,0.5c-0.3,0-0.5-0.1-0.8-0.1
	c-2.4,0-4.3,1.9-4.3,4.3c0,2.4,1.9,4.3,4.3,4.3c0.3,0,0.5,0,0.8-0.1c0.3-0.1,0.6,0.2,0.6,0.5v1.9c0,1-0.8,1.9-1.9,1.9h-2.4
	c-0.3,0-0.5,0.3-0.5,0.6c0,0.1,0,0.2,0,0.3c0,2.1-1.7,3.8-3.8,3.8c-2.1,0-3.8-1.7-3.8-3.8c0-0.1,0-0.2,0-0.3c0-0.3-0.2-0.6-0.5-0.6
	H1.9c-1,0-1.9-0.8-1.9-1.9V1.9z"/>
<defs>
	<filter id="Adobe_OpacityMaskFilter" filterUnits="userSpaceOnUse" x="-1" y="-0.9" width="19" height="23.7">
		<feColorMatrix  type="matrix" values="1 0 0 0 0  0 1 0 0 0  0 0 1 0 0  0 0 0 1 0"/>
	</filter>
</defs>
<mask maskUnits="userSpaceOnUse" x="-1" y="-0.9" width="19" height="23.7" id="path-1-inside-1_3982_344_00000067932054709634795010000006026288523840119997_">
	<path class="st1" d="M0,1.9C0,0.9,0.8,0,1.9,0h13.3c1,0,1.9,0.8,1.9,1.9v1.9c0,0.3-0.3,0.6-0.6,0.5c-0.3,0-0.5-0.1-0.8-0.1
		c-2.4,0-4.3,1.9-4.3,4.3c0,2.4,1.9,4.3,4.3,4.3c0.3,0,0.5,0,0.8-0.1c0.3-0.1,0.6,0.2,0.6,0.5v1.9c0,1-0.8,1.9-1.9,1.9h-2.4
		c-0.3,0-0.5,0.3-0.5,0.6c0,0.1,0,0.2,0,0.3c0,2.1-1.7,3.8-3.8,3.8c-2.1,0-3.8-1.7-3.8-3.8c0-0.1,0-0.2,0-0.3c0-0.3-0.2-0.6-0.5-0.6
		H1.9c-1,0-1.9-0.8-1.9-1.9V1.9z"/>
</mask>
<linearGradient id="SVGID_00000016790519243157580800000011342663832856576957_" gradientUnits="userSpaceOnUse" x1="58.4864" y1="-102.0256" x2="58.4864" y2="-124.7762" gradientTransform="matrix(1 0 0 -1 -50 -102)">
	<stop  offset="0" style="stop-color:#FFFFFF"/>
	<stop  offset="1" style="stop-color:#FFFFFF;stop-opacity:0"/>
</linearGradient>
<path style="mask:url(#path-1-inside-1_3982_344_00000067932054709634795010000006026288523840119997_);fill:url(#SVGID_00000016790519243157580800000011342663832856576957_);fill-opacity:0.5;" d="
	M12.2,17.7l-0.9,0.1L12.2,17.7z M16.4,12.8l0.2,0.9L16.4,12.8z M1.9-0.9C0.3-0.9-1,0.4-1,1.9h1.9C0.9,1.4,1.3,1,1.9,1V-0.9z
	 M15.1-0.9H1.9V1h13.3V-0.9z M18,1.9c0-1.6-1.3-2.8-2.8-2.8V1c0.5,0,0.9,0.4,0.9,0.9H18z M18,3.9V1.9h-1.9v1.9H18z M15.6,5.2
	c0.2,0,0.4,0,0.6,0.1l0.3-1.9c-0.3-0.1-0.6-0.1-0.9-0.1V5.2z M12.3,8.6c0-1.8,1.5-3.3,3.3-3.3V3.3c-2.9,0-5.2,2.3-5.2,5.2H12.3z
	 M15.6,11.9c-1.8,0-3.3-1.5-3.3-3.3h-1.9c0,2.9,2.3,5.2,5.2,5.2V11.9z M16.2,11.8c-0.2,0-0.4,0.1-0.6,0.1v1.9c0.3,0,0.6,0,0.9-0.1
	L16.2,11.8z M18,15.2v-1.9h-1.9v1.9H18z M15.1,18c1.6,0,2.8-1.3,2.8-2.8h-1.9c0,0.5-0.4,0.9-0.9,0.9V18z M12.7,18h2.4v-1.9h-2.4V18z
	 M11.3,17.8c0,0.1,0,0.2,0,0.3h1.9c0-0.1,0-0.3,0-0.4L11.3,17.8z M11.3,18c0,1.6-1.3,2.8-2.8,2.8v1.9c2.6,0,4.7-2.1,4.7-4.7H11.3z
	 M8.5,20.9c-1.6,0-2.8-1.3-2.8-2.8H3.7c0,2.6,2.1,4.7,4.7,4.7V20.9z M5.6,18c0-0.1,0-0.2,0-0.3l-1.9-0.2c0,0.1,0,0.3,0,0.4H5.6z
	 M1.9,18h2.3v-1.9H1.9V18z M-1,15.2c0,1.6,1.3,2.8,2.8,2.8v-1.9c-0.5,0-0.9-0.4-0.9-0.9H-1z M-1,1.9v13.3h1.9V1.9H-1z M5.6,17.8
	c0.1-0.8-0.5-1.6-1.5-1.6V18C4,18,3.9,18,3.8,17.9c-0.1-0.1-0.1-0.2-0.1-0.3L5.6,17.8z M12.7,16.1c-1,0-1.5,0.9-1.5,1.6l1.9-0.2
	c0,0.1,0,0.2-0.1,0.3C13,18,12.9,18,12.7,18V16.1z M16.5,13.7c-0.1,0-0.2,0-0.3-0.1c-0.1-0.1-0.2-0.2-0.2-0.4H18c0-1-1-1.6-1.8-1.4
	L16.5,13.7z M16.1,3.9c0-0.2,0.1-0.3,0.2-0.4c0.1-0.1,0.2-0.1,0.3-0.1l-0.3,1.9C17,5.4,18,4.9,18,3.9H16.1z"/>
<linearGradient id="SVGID_00000073719055867249203720000017382938221005305755_" gradientUnits="userSpaceOnUse" x1="60.8156" y1="-121.4653" x2="60.8735" y2="-137.5801" gradientTransform="matrix(1 0 0 -1 -50 -102)">
	<stop  offset="0" style="stop-color:#6FB8FF"/>
	<stop  offset="1" style="stop-color:#1E90FF"/>
</linearGradient>
<path style="fill-rule:evenodd;clip-rule:evenodd;fill:url(#SVGID_00000073719055867249203720000017382938221005305755_);" d="
	M1.9,36c-1,0-1.9-0.8-1.9-1.9l0-13.3c0-1,0.8-1.9,1.9-1.9h1.1c0.2,0,0.4,0.2,0.5,0.4c0.4,2.4,2.6,4.3,5.1,4.3c2.6,0,4.7-1.9,5.1-4.3
	c0-0.2,0.2-0.4,0.5-0.4h0.9c1,0,1.9,0.8,1.9,1.9v2.3c0,0.3,0.3,0.5,0.6,0.5c0.1,0,0.2,0,0.3,0c2.1,0,3.8,1.7,3.8,3.8
	c0,2.1-1.7,3.8-3.8,3.8c-0.1,0-0.2,0-0.3,0c-0.3,0-0.6,0.2-0.6,0.5v2.4c0,1-0.8,1.9-1.9,1.9H1.9z"/>
<defs>
	
		<filter id="Adobe_OpacityMaskFilter_00000181072111661436339240000008087479105540434106_" filterUnits="userSpaceOnUse" x="-1" y="18" width="23.7" height="19">
		<feColorMatrix  type="matrix" values="1 0 0 0 0  0 1 0 0 0  0 0 1 0 0  0 0 0 1 0"/>
	</filter>
</defs>
<mask maskUnits="userSpaceOnUse" x="-1" y="18" width="23.7" height="19" id="path-3-inside-2_3982_344_00000110457858352956455270000014919447445192428980_">
	
		<path style="fill-rule:evenodd;clip-rule:evenodd;fill:#FFFFFF;filter:url(#Adobe_OpacityMaskFilter_00000181072111661436339240000008087479105540434106_);" d="
		M1.9,36c-1,0-1.9-0.8-1.9-1.9l0-13.3c0-1,0.8-1.9,1.9-1.9h1.1c0.2,0,0.4,0.2,0.5,0.4c0.4,2.4,2.6,4.3,5.1,4.3
		c2.6,0,4.7-1.9,5.1-4.3c0-0.2,0.2-0.4,0.5-0.4h0.9c1,0,1.9,0.8,1.9,1.9v2.3c0,0.3,0.3,0.5,0.6,0.5c0.1,0,0.2,0,0.3,0
		c2.1,0,3.8,1.7,3.8,3.8c0,2.1-1.7,3.8-3.8,3.8c-0.1,0-0.2,0-0.3,0c-0.3,0-0.6,0.2-0.6,0.5v2.4c0,1-0.8,1.9-1.9,1.9H1.9z"/>
</mask>
<linearGradient id="SVGID_00000147920468783469379010000000428728759159191692_" gradientUnits="userSpaceOnUse" x1="60.8563" y1="-120.9844" x2="60.8563" y2="-138.0473" gradientTransform="matrix(1 0 0 -1 -50 -102)">
	<stop  offset="0" style="stop-color:#FFFFFF"/>
	<stop  offset="1" style="stop-color:#FFFFFF;stop-opacity:0"/>
</linearGradient>
<path style="mask:url(#path-3-inside-2_3982_344_00000110457858352956455270000014919447445192428980_);fill:url(#SVGID_00000147920468783469379010000000428728759159191692_);fill-opacity:0.5;" d="
	M13.7,19.4l0.9,0.2L13.7,19.4z M17.6,23.6l0.1,0.9L17.6,23.6z M3.4,19.4l-0.9,0.2L3.4,19.4z M-1,34.2c0,1.6,1.3,2.8,2.8,2.8v-1.9
	c-0.5,0-0.9-0.4-0.9-0.9H-1z M-1,20.9l0,13.3h1.9V20.9H-1z M1.9,18C0.3,18-1,19.3-1,20.9h1.9c0-0.5,0.4-0.9,0.9-0.9V18z M2.9,18H1.9
	v1.9h1.1V18z M8.5,22.8c-2.1,0-3.9-1.5-4.2-3.5l-1.9,0.3c0.5,2.9,3,5.1,6.1,5.1V22.8z M12.8,19.3c-0.3,2-2.1,3.5-4.2,3.5v1.9
	c3,0,5.6-2.2,6.1-5.1L12.8,19.3z M15.1,18.7h-0.9v1.2h0.9V18.7z M18,20.9c0-1.6-1.3-2.8-2.8-2.8v1.9c0.5,0,0.9,0.4,0.9,0.9H18z
	 M18,23.1v-2.3h-1.9v2.3H18z M17.7,24.6c0.1,0,0.2,0,0.3,0v-1.9c-0.1,0-0.3,0-0.4,0L17.7,24.6z M18,24.6c1.6,0,2.8,1.3,2.8,2.8h1.9
	c0-2.6-2.1-4.7-4.7-4.7V24.6z M20.8,27.4c0,1.6-1.3,2.8-2.8,2.8v1.9c2.6,0,4.7-2.1,4.7-4.7H20.8z M18,30.3c-0.1,0-0.2,0-0.3,0
	l-0.2,1.9c0.1,0,0.3,0,0.4,0V30.3z M18,34.2v-2.4h-1.9v2.4H18z M15.1,37c1.6,0,2.8-1.3,2.8-2.8h-1.9c0,0.5-0.4,0.9-0.9,0.9V37z
	 M1.9,37h13.3v-1.9H1.9V37z M17.7,30.3c-0.8-0.1-1.6,0.5-1.6,1.5H18c0,0.2-0.1,0.3-0.2,0.4c-0.1,0.1-0.2,0.1-0.3,0.1L17.7,30.3z
	 M14.6,19.6c0,0.2-0.2,0.4-0.4,0.4V18c-0.8,0-1.3,0.6-1.4,1.2L14.6,19.6z M16.1,23.1c0,1,0.9,1.5,1.6,1.5l-0.2-1.9
	c0.1,0,0.2,0,0.3,0.1c0.1,0.1,0.2,0.2,0.2,0.4H16.1z M2.9,19.9c-0.3,0-0.4-0.2-0.4-0.4l1.9-0.3C4.2,18.6,3.7,18,2.9,18V19.9z"/>
<linearGradient id="SVGID_00000121963176354357469020000011224743439897134007_" gradientUnits="userSpaceOnUse" x1="77.2205" y1="-116.7728" x2="77.5901" y2="-137.7339" gradientTransform="matrix(1 0 0 -1 -50 -102)">
	<stop  offset="0" style="stop-color:#6FB8FF"/>
	<stop  offset="1" style="stop-color:#1E90FF"/>
</linearGradient>
<path style="fill-rule:evenodd;clip-rule:evenodd;fill:url(#SVGID_00000121963176354357469020000011224743439897134007_);" d="
	M36,34.2c0,1-0.8,1.9-1.9,1.9H20.8c-1,0-1.9-0.8-1.9-1.9v-1c0-0.2,0.2-0.4,0.4-0.5c2.4-0.4,4.3-2.6,4.3-5.1s-1.9-4.7-4.3-5.1
	c-0.2,0-0.4-0.2-0.4-0.5v-1c0-1,0.8-1.9,1.9-1.9h1.9c0.3,0,0.6-0.3,0.5-0.6c0-0.3-0.1-0.5-0.1-0.8c0-2.4,1.9-4.3,4.3-4.3
	s4.3,1.9,4.3,4.3c0,0.3,0,0.5-0.1,0.8c-0.1,0.3,0.2,0.6,0.5,0.6h1.9c1,0,1.9,0.8,1.9,1.9V34.2z"/>
<defs>
	
		<filter id="Adobe_OpacityMaskFilter_00000166640892967928621120000009270479616967100568_" filterUnits="userSpaceOnUse" x="18" y="12.3" width="19" height="24.6">
		<feColorMatrix  type="matrix" values="1 0 0 0 0  0 1 0 0 0  0 0 1 0 0  0 0 0 1 0"/>
	</filter>
</defs>
<mask maskUnits="userSpaceOnUse" x="18" y="12.3" width="19" height="24.6" id="path-5-inside-3_3982_344_00000065762292678289020930000005203528108031530175_">
	
		<path style="fill-rule:evenodd;clip-rule:evenodd;fill:#FFFFFF;filter:url(#Adobe_OpacityMaskFilter_00000166640892967928621120000009270479616967100568_);" d="
		M36,34.2c0,1-0.8,1.9-1.9,1.9H20.8c-1,0-1.9-0.8-1.9-1.9v-1c0-0.2,0.2-0.4,0.4-0.5c2.4-0.4,4.3-2.6,4.3-5.1s-1.9-4.7-4.3-5.1
		c-0.2,0-0.4-0.2-0.4-0.5v-1c0-1,0.8-1.9,1.9-1.9h1.9c0.3,0,0.6-0.3,0.5-0.6c0-0.3-0.1-0.5-0.1-0.8c0-2.4,1.9-4.3,4.3-4.3
		s4.3,1.9,4.3,4.3c0,0.3,0,0.5-0.1,0.8c-0.1,0.3,0.2,0.6,0.5,0.6h1.9c1,0,1.9,0.8,1.9,1.9V34.2z"/>
</mask>
<linearGradient id="SVGID_00000175317864177340304090000000775451499931596951_" gradientUnits="userSpaceOnUse" x1="77.4452" y1="-115.2968" x2="77.4452" y2="-138.0473" gradientTransform="matrix(1 0 0 -1 -50 -102)">
	<stop  offset="0" style="stop-color:#FFFFFF"/>
	<stop  offset="1" style="stop-color:#FFFFFF;stop-opacity:0"/>
</linearGradient>
<path style="mask:url(#path-5-inside-3_3982_344_00000065762292678289020930000005203528108031530175_);fill:url(#SVGID_00000175317864177340304090000000775451499931596951_);fill-opacity:0.5;" d="
	M34.1,36v-0.9V36z M20.8,36V37V36z M18.9,20.9H18H18.9z M20.8,19V18V19z M34.1,19V18V19z M31.6,18.3l0.9,0.2L31.6,18.3z M32.1,19V18
	V19z M19.3,22.4l0.2-0.9L19.3,22.4z M18.9,21.9h0.9H18.9z M22.8,19V18V19z M23.2,18.3l-0.9,0.2L23.2,18.3z M34.1,37
	c1.6,0,2.8-1.3,2.8-2.8H35c0,0.5-0.4,0.9-0.9,0.9V37z M20.8,37h13.3v-1.9H20.8V37z M18,34.2c0,1.6,1.3,2.8,2.8,2.8v-1.9
	c-0.5,0-0.9-0.4-0.9-0.9H18z M18,33.1v1h1.9v-1H18z M22.7,27.5c0,2.1-1.5,3.9-3.5,4.2l0.3,1.9c2.9-0.5,5.1-3,5.1-6.1H22.7z
	 M19.2,23.3c2,0.3,3.5,2.1,3.5,4.2h1.9c0-3-2.2-5.6-5.1-6.1L19.2,23.3z M18,20.9v1h1.9v-1H18z M20.8,18c-1.6,0-2.8,1.3-2.8,2.8h1.9
	c0-0.5,0.4-0.9,0.9-0.9V18z M22.8,18h-1.9v1.9h1.9V18z M24.2,18.2c0-0.2-0.1-0.4-0.1-0.6h-1.9c0,0.3,0,0.6,0.1,0.9L24.2,18.2z
	 M24.1,17.6c0-1.8,1.5-3.3,3.3-3.3v-1.9c-2.9,0-5.2,2.3-5.2,5.2H24.1z M27.4,14.2c1.8,0,3.3,1.5,3.3,3.3h1.9c0-2.9-2.3-5.2-5.2-5.2
	V14.2z M30.8,17.6c0,0.2,0,0.4-0.1,0.6l1.9,0.3c0.1-0.3,0.1-0.6,0.1-0.9H30.8z M34.1,18h-1.9v1.9h1.9V18z M36.9,20.9
	c0-1.6-1.3-2.8-2.8-2.8v1.9c0.5,0,0.9,0.4,0.9,0.9H36.9z M36.9,34.2V20.9H35v13.3H36.9z M30.7,18.2c-0.1,0.8,0.4,1.8,1.4,1.8V18
	c0.2,0,0.3,0.1,0.4,0.2c0.1,0.1,0.1,0.2,0.1,0.3L30.7,18.2z M19.5,21.4c0.2,0,0.4,0.2,0.4,0.4H18c0,0.8,0.6,1.3,1.2,1.4L19.5,21.4z
	 M22.8,19.9c1,0,1.6-1,1.4-1.8l-1.9,0.3c0-0.1,0-0.2,0.1-0.3c0.1-0.1,0.2-0.2,0.4-0.2V19.9z M19.9,33.1c0,0.3-0.2,0.4-0.4,0.4
	l-0.3-1.9c-0.6,0.1-1.2,0.7-1.2,1.4H19.9z"/>
</svg>
