<?xml version="1.0" encoding="utf-8"?>
<!-- Generator: Adobe Illustrator 26.3.1, SVG Export Plug-In . SVG Version: 6.00 Build 0)  -->
<svg version="1.1" id="eUtfKsV2qQa1" text-rendering="geometricPrecision" shape-rendering="geometricPrecision"
	 xmlns="http://www.w3.org/2000/svg" xmlns:xlink="http://www.w3.org/1999/xlink" x="0px" y="0px" viewBox="0 0 36 36"
	 style="enable-background:new 0 0 36 36;" xml:space="preserve">
<style type="text/css">
	.st0{fill-rule:evenodd;clip-rule:evenodd;fill:url(#SVGID_1_);}
	.st1{fill:url(#SVGID_00000052815287017581709820000017836372849912184983_);}
	.st2{fill:none;stroke:url(#SVGID_00000006695933432537439480000014128598273280422802_);stroke-opacity:0.5;}
</style>
<g>
	
		<linearGradient id="SVGID_1_" gradientUnits="userSpaceOnUse" x1="68.14" y1="-102.6489" x2="67.7531" y2="-140.3154" gradientTransform="matrix(1 0 0 -1 -50 -102)">
		<stop  offset="0" style="stop-color:#6FB8FF"/>
		<stop  offset="1" style="stop-color:#1E90FF"/>
	</linearGradient>
	<path class="st0" d="M0,2c0-1.1,0.9-2,2-2h32c1.1,0,2,0.9,2,2v24.6c0,1.1-0.9,2-2,2H2c-1.1,0-2-0.9-2-2V2z M17.3,4
		c0.3-0.6,1.1-0.6,1.4,0l3,5.3l5.7,1.3c0.6,0.1,0.8,0.9,0.4,1.4l-3.9,4.6l0.6,6.1c0.1,0.6-0.6,1.1-1.1,0.9L18,21.1l-5.4,2.4
		c-0.6,0.3-1.2-0.2-1.1-0.9l0.6-6.1L8.2,12c-0.4-0.5-0.2-1.2,0.4-1.4l5.7-1.3L17.3,4z"/>
	
		<linearGradient id="SVGID_00000142138550464992625180000009807976582957035910_" gradientUnits="userSpaceOnUse" x1="68.3351" y1="-102.6509" x2="67.9482" y2="-140.3174" gradientTransform="matrix(1 0 0 -1 -50 -102)">
		<stop  offset="0" style="stop-color:#6FB8FF"/>
		<stop  offset="1" style="stop-color:#1E90FF"/>
	</linearGradient>
	<path style="fill:url(#SVGID_00000142138550464992625180000009807976582957035910_);" d="M2,30.6c-1.1,0-2,0.9-2,2V34
		c0,1.1,0.9,2,2,2h32c1.1,0,2-0.9,2-2v-1.4c0-1.1-0.9-2-2-2H2z"/>
	
		<linearGradient id="SVGID_00000041290192651500940690000004517051050362167171_" gradientUnits="userSpaceOnUse" x1="68" y1="-102" x2="68" y2="-138" gradientTransform="matrix(1 0 0 -1 -50 -102)">
		<stop  offset="0" style="stop-color:#FFFFFF"/>
		<stop  offset="1" style="stop-color:#FFFFFF;stop-opacity:0"/>
	</linearGradient>
	<path style="fill:none;stroke:url(#SVGID_00000041290192651500940690000004517051050362167171_);stroke-opacity:0.5;" d="M0.5,2
		c0-0.8,0.7-1.5,1.5-1.5h32c0.8,0,1.5,0.7,1.5,1.5v24.6c0,0.8-0.7,1.5-1.5,1.5H2c-0.8,0-1.5-0.7-1.5-1.5V2z M0.5,34v-1.4
		c0-0.8,0.7-1.5,1.5-1.5h32c0.8,0,1.5,0.7,1.5,1.5V34c0,0.8-0.7,1.5-1.5,1.5H2C1.2,35.5,0.5,34.8,0.5,34z M19.1,3.7
		c-0.5-0.9-1.8-0.9-2.3,0L14,8.8l-5.5,1.3c-1,0.2-1.3,1.4-0.7,2.2l3.7,4.4L11,22.6c-0.1,1,0.9,1.8,1.8,1.4l5.2-2.3l5.2,2.3
		c0.9,0.4,1.9-0.4,1.8-1.4l-0.5-5.9l3.7-4.4c0.6-0.7,0.3-2-0.7-2.2L22,8.8L19.1,3.7z"/>
</g>
</svg>
