<?xml version="1.0" encoding="utf-8"?>
<!-- Generator: Adobe Illustrator 26.3.1, SVG Export Plug-In . SVG Version: 6.00 Build 0)  -->
<svg version="1.1" id="eUtfKsV2qQa1" text-rendering="geometricPrecision" shape-rendering="geometricPrecision"
	 xmlns="http://www.w3.org/2000/svg" xmlns:xlink="http://www.w3.org/1999/xlink" x="0px" y="0px" viewBox="0 0 36 36"
	 style="enable-background:new 0 0 36 36;" xml:space="preserve">
<style type="text/css">
	.st0{fill-rule:evenodd;clip-rule:evenodd;fill:url(#SVGID_1_);}
	.st1{fill:url(#SVGID_00000021082731579474869470000009720058579702377886_);}
	.st2{fill:url(#SVGID_00000172412190216420337230000012128322890056236693_);}
	.st3{fill:none;stroke:url(#SVGID_00000120522191501606385750000014427209009036525213_);stroke-opacity:0.5;}
	.st4{fill:url(#SVGID_00000142134285663522678850000011056920615935116430_);}
	.st5{fill:none;stroke:url(#SVGID_00000104699840512570597710000010140940663158555569_);stroke-opacity:0.5;}
</style>
<g>
	
		<linearGradient id="SVGID_1_" gradientUnits="userSpaceOnUse" x1="82.154" y1="-113.554" x2="81.3446" y2="-135.139" gradientTransform="matrix(1 0 0 -1 -50 -102)">
		<stop  offset="0" style="stop-color:#6FB8FF"/>
		<stop  offset="1" style="stop-color:#1E90FF"/>
	</linearGradient>
	<path class="st0" d="M32,11.2h-1v15.5c-0.1,0-0.1,0.1-0.2,0.2l-1.4,1.4c-0.4,0.4-0.4,1,0,1.4l1.4,1.4c0.4,0.4,1,0.4,1.4,0l1.4-1.4
		c0.4-0.4,0.4-1,0-1.4l-1.4-1.4c-0.1-0.1-0.1-0.1-0.2-0.2V11.2z"/>
	
		<linearGradient id="SVGID_00000059271666085072292170000011835726486986223753_" gradientUnits="userSpaceOnUse" x1="31.5003" y1="11.158" x2="31.5003" y2="31.4006">
		<stop  offset="0" style="stop-color:#FFFFFF"/>
		<stop  offset="1" style="stop-color:#FFFFFF;stop-opacity:0"/>
	</linearGradient>
	<path style="fill:url(#SVGID_00000059271666085072292170000011835726486986223753_);" d="M31.5,27.6l1.4,1.4l-1.4,1.4L30.1,29
		L31.5,27.6 M32,11.2h-1v15.5c-0.1,0-0.1,0.1-0.2,0.2l-1.4,1.4c-0.4,0.4-0.4,1,0,1.4l1.4,1.4c0.2,0.2,0.5,0.3,0.7,0.3
		s0.5-0.1,0.7-0.3l1.4-1.4c0.4-0.4,0.4-1,0-1.4l-1.4-1.4c-0.1-0.1-0.1-0.1-0.2-0.2V11.2L32,11.2z"/>
</g>
<linearGradient id="SVGID_00000152235056214512591550000004159295012892629183_" gradientUnits="userSpaceOnUse" x1="68.0272" y1="-105.8552" x2="67.9669" y2="-120.7332" gradientTransform="matrix(1 0 0 -1 -50 -102)">
	<stop  offset="0" style="stop-color:#6FB8FF"/>
	<stop  offset="1" style="stop-color:#1E90FF"/>
</linearGradient>
<path style="fill:url(#SVGID_00000152235056214512591550000004159295012892629183_);" d="M17.8,17.8c-0.1,0-0.1,0-0.2,0L0.3,11.1
	C0.1,11,0,10.8,0,10.6s0.1-0.4,0.3-0.5l17.6-6.5c0.1,0,0.2,0,0.3,0l17.4,6.5c0.2,0.1,0.3,0.3,0.3,0.5s-0.1,0.4-0.3,0.5l-17.6,6.8
	C17.9,17.8,17.9,17.8,17.8,17.8z"/>
<linearGradient id="SVGID_00000032623755973980397140000006327254052013150337_" gradientUnits="userSpaceOnUse" x1="68" y1="-105.5994" x2="68" y2="-119.8179" gradientTransform="matrix(1 0 0 -1 -50 -102)">
	<stop  offset="0" style="stop-color:#FFFFFF"/>
	<stop  offset="1" style="stop-color:#FFFFFF;stop-opacity:0"/>
</linearGradient>
<path style="fill:none;stroke:url(#SVGID_00000032623755973980397140000006327254052013150337_);stroke-opacity:0.5;" d="M17.8,17.3
	L17.8,17.3L17.8,17.3L17.8,17.3L17.8,17.3L17.8,17.3L17.8,17.3L17.8,17.3L17.8,17.3L17.8,17.3L17.8,17.3L17.8,17.3L17.8,17.3
	L17.8,17.3L17.8,17.3L17.8,17.3L17.8,17.3L17.8,17.3L17.8,17.3L17.8,17.3L17.8,17.3L17.8,17.3L17.8,17.3L17.8,17.3L17.8,17.3
	L17.8,17.3L17.8,17.3L17.8,17.3L17.8,17.3L17.8,17.3L17.8,17.3L17.8,17.3L17.8,17.3L17.8,17.3L17.8,17.3L17.8,17.3L17.8,17.3
	L17.8,17.3L17.8,17.3L17.8,17.3L17.8,17.3L17.8,17.3L17.8,17.3L17.8,17.3L17.8,17.3L17.8,17.3L17.8,17.3L17.8,17.3L17.8,17.3
	L17.8,17.3L17.8,17.3L17.8,17.3L17.8,17.3L17.8,17.3L17.8,17.3L17.8,17.3L17.8,17.3L17.8,17.3L17.8,17.3L17.8,17.3L17.8,17.3
	L17.8,17.3L17.8,17.3L17.8,17.3L17.8,17.3L17.8,17.3L17.8,17.3L17.8,17.3L17.8,17.3L17.8,17.3L17.8,17.3L17.8,17.3L17.8,17.3
	L17.8,17.3L17.8,17.3L17.8,17.3L17.8,17.3L17.8,17.3L17.8,17.3L17.8,17.3L17.8,17.3L17.8,17.3L17.8,17.3L17.8,17.3L17.8,17.3
	L17.8,17.3L17.8,17.3L17.8,17.3L17.8,17.3L17.8,17.3L17.8,17.3L17.8,17.3L17.8,17.3L17.8,17.3L17.8,17.3L17.8,17.3L17.8,17.3
	L17.8,17.3L17.8,17.3L17.8,17.3L17.8,17.3L17.8,17.3L17.8,17.3L17.8,17.3L17.8,17.3L17.8,17.3L17.8,17.3L17.8,17.3L17.8,17.3
	L17.8,17.3L17.8,17.3L17.8,17.3L17.8,17.3L17.8,17.3L17.8,17.3L17.8,17.3L17.8,17.3L17.8,17.3L17.8,17.3L17.8,17.3L17.8,17.3
	L17.8,17.3L17.8,17.3L17.8,17.3L17.8,17.3L17.8,17.3L17.8,17.3L17.8,17.3L17.8,17.3L17.8,17.3L17.8,17.3L17.8,17.3L17.8,17.3
	L17.8,17.3L17.8,17.3L17.8,17.3L17.8,17.3L17.8,17.3L17.8,17.3L17.8,17.3L17.8,17.3L17.8,17.3L17.8,17.3L17.8,17.3L17.8,17.3
	L17.8,17.3L17.8,17.3L17.8,17.3L17.8,17.3L17.8,17.3L17.8,17.3L17.8,17.3L17.8,17.3L17.8,17.3L17.8,17.3L17.8,17.3L17.8,17.3
	L17.8,17.3L17.8,17.3L17.8,17.3L17.8,17.3L17.8,17.3L17.8,17.3L17.8,17.3L17.8,17.3L17.8,17.3L17.8,17.3L17.8,17.3L17.8,17.3
	L17.8,17.3L17.8,17.3L17.8,17.3L17.8,17.3L17.8,17.3L17.8,17.3L17.8,17.3L17.8,17.3L17.8,17.3L17.8,17.3L17.8,17.3L17.8,17.3
	L17.8,17.3L17.8,17.3L17.8,17.3L17.8,17.3L17.8,17.3L17.8,17.3L17.8,17.3L17.8,17.3L17.8,17.3L17.8,17.3L17.8,17.3L17.8,17.3
	L17.8,17.3L17.8,17.3L17.8,17.3L17.8,17.3L17.8,17.3L17.8,17.3L17.8,17.3L17.8,17.3L17.8,17.3L17.8,17.3L17.8,17.3L17.8,17.3
	L17.8,17.3L17.8,17.3L17.8,17.3L17.8,17.3L17.8,17.3L17.8,17.3L17.8,17.3L17.8,17.3L17.8,17.3L17.8,17.3L17.8,17.3L17.8,17.3
	L17.8,17.3L17.8,17.3L17.8,17.3L17.8,17.3L17.8,17.3L17.8,17.3L17.8,17.3L17.8,17.3L17.8,17.3L17.8,17.3L17.8,17.3L17.8,17.3
	L17.8,17.3L17.8,17.3L17.8,17.3L17.8,17.3L17.8,17.3L17.8,17.3L17.8,17.3L17.8,17.3L17.8,17.3L17.8,17.3L17.8,17.3L17.8,17.3
	L17.8,17.3L17.8,17.3L17.8,17.3L17.8,17.3L17.8,17.3L17.8,17.3L17.8,17.3L17.8,17.3L17.8,17.3L17.8,17.3L17.8,17.3L17.8,17.3
	L17.8,17.3h-0.1h0h0h0h0h0h0h0h0h0h0h0h0h0h0h0h0h0h0h0h0h0h0h0h0h0h0L0.5,10.6c0,0,0,0,0,0c0,0,0,0,0,0c0,0,0,0,0,0s0,0,0,0
	c0,0,0,0,0,0L18,4.1h0h0h0h0h0h0h0h0h0h0h0h0h0h0h0h0h0h0h0h0h0h0h0h0h0h0h0h0h0h0h0h0h0h0h0h0h0h0h0h0h0h0h0h0h0h0h0h0h0h0h0h0h0h0
	h0h0h0h0h0h0h0h0h0h0h0h0h0h0h0h0h0h0h0h0h0h0h0h0h0h0h0h0h0h0h0h0h0h0h0h0h0h0h0h0h0h0h0h0h0h0h0h0h0h0h0h0h0h0h0h0h0h0h0h0h0h0h0
	h0h0h0h0h0h0h0h0h0h0h0h0h0h0h0h0h0h0h0h0h0h0h0h0h0h0h0h0h0h0h0h0h0h0h0h0h0h0h0h0h0h0h0h0h0h0h0h0h0h0h0h0h0h0h0h0h0h0h0h0h0h0h0
	h0h0h0h0h0h0h0h0h0h0h0h0h0h0h0h0h0h0h0h0h0h0h0h0h0h0h0h0h0h0h0h0l17.3,6.4c0,0,0,0,0,0c0,0,0,0,0,0s0,0,0,0c0,0,0,0,0,0
	c0,0,0,0,0,0L18,17.3h0h0h0h0h0h0h0h0h0h0h0h0h0h0h0h0h0h0h0h0h0h0h0h0h0h0h0h0h0h0h0h0H17.8L17.8,17.3L17.8,17.3L17.8,17.3
	L17.8,17.3L17.8,17.3L17.8,17.3L17.8,17.3L17.8,17.3L17.8,17.3L17.8,17.3L17.8,17.3L17.8,17.3L17.8,17.3L17.8,17.3L17.8,17.3
	L17.8,17.3L17.8,17.3L17.8,17.3L17.8,17.3L17.8,17.3L17.8,17.3L17.8,17.3L17.8,17.3L17.8,17.3L17.8,17.3L17.8,17.3L17.8,17.3
	L17.8,17.3L17.8,17.3L17.8,17.3L17.8,17.3L17.8,17.3L17.8,17.3L17.8,17.3L17.8,17.3L17.8,17.3L17.8,17.3L17.8,17.3L17.8,17.3
	L17.8,17.3L17.8,17.3L17.8,17.3L17.8,17.3L17.8,17.3L17.8,17.3L17.8,17.3L17.8,17.3L17.8,17.3L17.8,17.3L17.8,17.3L17.8,17.3
	L17.8,17.3L17.8,17.3L17.8,17.3L17.8,17.3L17.8,17.3L17.8,17.3L17.8,17.3L17.8,17.3L17.8,17.3L17.8,17.3L17.8,17.3L17.8,17.3
	L17.8,17.3L17.8,17.3L17.8,17.3L17.8,17.3L17.8,17.3L17.8,17.3L17.8,17.3L17.8,17.3L17.8,17.3L17.8,17.3L17.8,17.3L17.8,17.3
	L17.8,17.3L17.8,17.3L17.8,17.3L17.8,17.3L17.8,17.3L17.8,17.3L17.8,17.3L17.8,17.3L17.8,17.3L17.8,17.3L17.8,17.3L17.8,17.3
	L17.8,17.3L17.8,17.3L17.8,17.3L17.8,17.3L17.8,17.3L17.8,17.3L17.8,17.3L17.8,17.3L17.8,17.3L17.8,17.3L17.8,17.3L17.8,17.3
	L17.8,17.3L17.8,17.3L17.8,17.3L17.8,17.3L17.8,17.3L17.8,17.3L17.8,17.3L17.8,17.3L17.8,17.3L17.8,17.3L17.8,17.3L17.8,17.3
	L17.8,17.3L17.8,17.3L17.8,17.3L17.8,17.3L17.8,17.3L17.8,17.3L17.8,17.3L17.8,17.3L17.8,17.3L17.8,17.3L17.8,17.3L17.8,17.3
	L17.8,17.3L17.8,17.3L17.8,17.3L17.8,17.3L17.8,17.3L17.8,17.3L17.8,17.3L17.8,17.3L17.8,17.3L17.8,17.3L17.8,17.3L17.8,17.3
	L17.8,17.3L17.8,17.3L17.8,17.3L17.8,17.3L17.8,17.3L17.8,17.3L17.8,17.3L17.8,17.3L17.8,17.3L17.8,17.3L17.8,17.3L17.8,17.3
	L17.8,17.3L17.8,17.3L17.8,17.3L17.8,17.3L17.8,17.3L17.8,17.3L17.8,17.3L17.8,17.3L17.8,17.3L17.8,17.3L17.8,17.3L17.8,17.3
	L17.8,17.3L17.8,17.3L17.8,17.3L17.8,17.3L17.8,17.3L17.8,17.3L17.8,17.3L17.8,17.3L17.8,17.3L17.8,17.3L17.8,17.3L17.8,17.3
	L17.8,17.3L17.8,17.3L17.8,17.3L17.8,17.3L17.8,17.3L17.8,17.3L17.8,17.3L17.8,17.3L17.8,17.3L17.8,17.3L17.8,17.3L17.8,17.3
	L17.8,17.3L17.8,17.3L17.8,17.3L17.8,17.3L17.8,17.3L17.8,17.3L17.8,17.3L17.8,17.3L17.8,17.3L17.8,17.3L17.8,17.3L17.8,17.3
	L17.8,17.3L17.8,17.3L17.8,17.3L17.8,17.3L17.8,17.3L17.8,17.3L17.8,17.3L17.8,17.3L17.8,17.3L17.8,17.3L17.8,17.3L17.8,17.3
	L17.8,17.3L17.8,17.3L17.8,17.3L17.8,17.3L17.8,17.3L17.8,17.3L17.8,17.3L17.8,17.3L17.8,17.3L17.8,17.3L17.8,17.3L17.8,17.3
	L17.8,17.3L17.8,17.3L17.8,17.3L17.8,17.3L17.8,17.3L17.8,17.3L17.8,17.3L17.8,17.3L17.8,17.3L17.8,17.3L17.8,17.3L17.8,17.3
	L17.8,17.3L17.8,17.3L17.8,17.3L17.8,17.3L17.8,17.3L17.8,17.3L17.8,17.3L17.8,17.3L17.8,17.3L17.8,17.3L17.8,17.3L17.8,17.3
	L17.8,17.3L17.8,17.3L17.8,17.3L17.8,17.3L17.8,17.3L17.8,17.3L17.8,17.3L17.8,17.3L17.8,17.3z"/>
<linearGradient id="SVGID_00000137131766367886224920000016484038596053778323_" gradientUnits="userSpaceOnUse" x1="67.6208" y1="-118.0736" x2="67.5186" y2="-132.9242" gradientTransform="matrix(1 0 0 -1 -50 -102)">
	<stop  offset="0" style="stop-color:#6FB8FF"/>
	<stop  offset="1" style="stop-color:#1E90FF"/>
</linearGradient>
<path style="fill:url(#SVGID_00000137131766367886224920000016484038596053778323_);" d="M7,15.8l9.7,3.8c0.4,0.1,0.7,0.2,1.1,0.2
	c0.4,0,0.8-0.1,1.1-0.2l9.2-3.5v9.7c-5.9,5.6-15.2,5.6-21.2,0V15.8z"/>
<linearGradient id="SVGID_00000057862364232767124200000013482034945268612767_" gradientUnits="userSpaceOnUse" x1="67.5882" y1="-117.8181" x2="67.5882" y2="-131.0108" gradientTransform="matrix(1 0 0 -1 -50 -102)">
	<stop  offset="0" style="stop-color:#FFFFFF"/>
	<stop  offset="1" style="stop-color:#FFFFFF;stop-opacity:0"/>
</linearGradient>
<path style="fill:none;stroke:url(#SVGID_00000057862364232767124200000013482034945268612767_);stroke-opacity:0.5;" d="M7.5,25.6
	v-9l9.1,3.5c0.4,0.2,0.9,0.2,1.3,0.2c0.4,0,0.9-0.1,1.3-0.2l8.5-3.3v8.7C22,30.8,13.2,30.8,7.5,25.6z"/>
</svg>
