<?xml version="1.0" encoding="utf-8"?>
<!-- Generator: Adobe Illustrator 26.3.1, SVG Export Plug-In . SVG Version: 6.00 Build 0)  -->
<svg version="1.1" id="eUtfKsV2qQa1" text-rendering="geometricPrecision" shape-rendering="geometricPrecision"
	 xmlns="http://www.w3.org/2000/svg" xmlns:xlink="http://www.w3.org/1999/xlink" x="0px" y="0px" viewBox="0 0 36 36"
	 style="enable-background:new 0 0 36 36;" xml:space="preserve">
<style type="text/css">
	.st0{fill:url(#SVGID_1_);}
	.st1{fill:none;stroke:url(#SVGID_00000084503967770308313480000010454051418041248183_);stroke-opacity:0.5;}
	.st2{fill:#FFFFFF;}
	.st3{fill-rule:evenodd;clip-rule:evenodd;fill:url(#SVGID_00000134216843332844799140000010733610861187050937_);}
	.st4{fill:none;stroke:url(#SVGID_00000078758994089177482580000010260168839610391470_);stroke-opacity:0.5;}
</style>
<g>
	
		<linearGradient id="SVGID_1_" gradientUnits="userSpaceOnUse" x1="68.2315" y1="-110.6559" x2="67.9451" y2="-139.7919" gradientTransform="matrix(1 0 0 -1 -50 -102)">
		<stop  offset="0" style="stop-color:#6FB8FF"/>
		<stop  offset="1" style="stop-color:#1E90FF"/>
	</linearGradient>
	<path class="st0" d="M5.5,10.4C5.6,9.1,6.7,8.2,8,8.2H28c1.3,0,2.4,1,2.5,2.3l2,21.4c0.2,2.2-1.5,4.2-3.8,4.2H7.3
		c-2.2,0-4-1.9-3.8-4.2L5.5,10.4z"/>
	
		<linearGradient id="SVGID_00000151507343062248034390000015630123027755105177_" gradientUnits="userSpaceOnUse" x1="68" y1="-110.1528" x2="68" y2="-137.9995" gradientTransform="matrix(1 0 0 -1 -50 -102)">
		<stop  offset="0" style="stop-color:#FFFFFF"/>
		<stop  offset="1" style="stop-color:#FFFFFF;stop-opacity:0"/>
	</linearGradient>
	<path style="fill:none;stroke:url(#SVGID_00000151507343062248034390000015630123027755105177_);stroke-opacity:0.5;" d="M8,8.7H28
		c1,0,1.9,0.8,2,1.8l2,21.4c0.2,1.9-1.3,3.6-3.3,3.6H7.3c-1.9,0-3.5-1.7-3.3-3.6l2-21.4C6.1,9.4,7,8.7,8,8.7z"/>
	<circle class="st2" cx="11.5" cy="12.6" r="2"/>
	<circle class="st2" cx="24.5" cy="12.6" r="2"/>
	
		<linearGradient id="SVGID_00000068651632660077739670000007154362175738532486_" gradientUnits="userSpaceOnUse" x1="68.0822" y1="-102.2324" x2="67.9651" y2="-115.6885" gradientTransform="matrix(1 0 0 -1 -50 -102)">
		<stop  offset="0" style="stop-color:#6FB8FF"/>
		<stop  offset="1" style="stop-color:#1E90FF"/>
	</linearGradient>
	<path style="fill-rule:evenodd;clip-rule:evenodd;fill:url(#SVGID_00000068651632660077739670000007154362175738532486_);" d="
		M10.4,7.6C10.4,3.4,13.8,0,18,0c4.2,0,7.6,3.4,7.6,7.6v4c0,0.7-0.6,1.3-1.3,1.3l0,0c-0.7,0-1.3-0.6-1.3-1.3v-4
		c0-2.8-2.3-5.1-5.1-5.1c-2.8,0-5.1,2.3-5.1,5.1v4c0,0.7-0.6,1.3-1.3,1.3l0,0c-0.7,0-1.3-0.6-1.3-1.3V7.6z"/>
	
		<linearGradient id="SVGID_00000042711485341759056710000002499673528084878498_" gradientUnits="userSpaceOnUse" x1="68.0009" y1="-102.0005" x2="68.0009" y2="-110.8608" gradientTransform="matrix(1 0 0 -1 -50 -102)">
		<stop  offset="0" style="stop-color:#FFFFFF"/>
		<stop  offset="1" style="stop-color:#FFFFFF;stop-opacity:0"/>
	</linearGradient>
	<path style="fill:none;stroke:url(#SVGID_00000042711485341759056710000002499673528084878498_);stroke-opacity:0.5;" d="M10.9,7.6
		c0-3.9,3.2-7.1,7.1-7.1c3.9,0,7.1,3.2,7.1,7.1v4c0,0.4-0.3,0.8-0.8,0.8c-0.4,0-0.8-0.3-0.8-0.8v-4C23.6,4.5,21.1,2,18,2
		c-3.1,0-5.6,2.5-5.6,5.6v4c0,0.4-0.3,0.8-0.8,0.8c-0.4,0-0.8-0.3-0.8-0.8V7.6z"/>
</g>
</svg>
