<?xml version="1.0" encoding="utf-8"?>
<!-- Generator: Adobe Illustrator 26.3.1, SVG Export Plug-In . SVG Version: 6.00 Build 0)  -->
<svg version="1.1" id="eUtfKsV2qQa1" text-rendering="geometricPrecision" shape-rendering="geometricPrecision"
	 xmlns="http://www.w3.org/2000/svg" xmlns:xlink="http://www.w3.org/1999/xlink" x="0px" y="0px" viewBox="0 0 36 36"
	 style="enable-background:new 0 0 36 36;" xml:space="preserve">
<style type="text/css">
	.st0{fill-rule:evenodd;clip-rule:evenodd;fill:url(#SVGID_1_);}
	.st1{fill:none;stroke:url(#SVGID_00000052072080402006590330000006088071172609547404_);stroke-opacity:0.5;}
</style>
<linearGradient id="SVGID_1_" gradientUnits="userSpaceOnUse" x1="68.1852" y1="-102.6916" x2="67.7983" y2="-140.3582" gradientTransform="matrix(1 0 0 -1 -50 -102)">
	<stop  offset="0" style="stop-color:#6FB8FF"/>
	<stop  offset="1" style="stop-color:#1E90FF"/>
</linearGradient>
<path class="st0" d="M18,0C8.1,0,0,8.1,0,18C0,28,8.1,36,18,36c9.9,0,18-8.1,18-18C36,8.1,27.9,0,18,0z M16.8,29.3
	c0.1,0.1,0.2,0.2,0.4,0.2h0.9c0.2,0,0.3-0.1,0.4-0.2c0.1-0.1,0.2-0.2,0.2-0.4v-1.7c1.1-0.1,2-0.3,2.8-0.8c0.8-0.4,1.4-0.9,1.8-1.6
	c0.4-0.7,0.7-1.5,0.7-2.4c0-0.9-0.2-1.7-0.6-2.3c-0.4-0.6-1-1.1-1.8-1.5c-0.8-0.4-1.8-0.8-3.1-1.1c-1-0.3-1.9-0.6-2.5-0.9
	c-0.6-0.3-1.1-0.6-1.4-0.9c-0.3-0.4-0.4-0.8-0.4-1.4c0-0.9,0.3-1.5,0.9-1.9c0.6-0.4,1.5-0.6,2.5-0.6c1,0,1.8,0.2,2.4,0.7
	c0.6,0.5,1,1,1.1,1.7c0.1,0.2,0.1,0.3,0.3,0.4c0.1,0.1,0.2,0.1,0.4,0.1H23c0.2,0,0.3,0,0.4-0.1c0.1-0.1,0.1-0.2,0.1-0.3
	c0-0.6-0.2-1.2-0.6-1.8c-0.4-0.6-0.9-1.2-1.6-1.6c-0.7-0.5-1.6-0.8-2.6-0.9V8.2c0-0.2-0.1-0.3-0.2-0.4c-0.1-0.1-0.2-0.2-0.4-0.2
	h-0.9c-0.2,0-0.3,0.1-0.4,0.2c-0.1,0.1-0.1,0.2-0.1,0.4v1.7c-1.6,0.1-2.8,0.6-3.6,1.5c-0.8,0.8-1.3,1.9-1.3,3c0,0.9,0.2,1.7,0.5,2.3
	c0.4,0.6,0.9,1.1,1.7,1.5c0.8,0.4,1.7,0.8,2.8,1.1c1.1,0.3,2,0.6,2.7,0.9c0.7,0.3,1.2,0.6,1.5,0.9c0.3,0.3,0.5,0.8,0.5,1.4
	c0,0.8-0.3,1.5-1,2c-0.6,0.5-1.6,0.7-3,0.7c-0.9,0-1.6-0.1-2.2-0.4c-0.5-0.3-1-0.6-1.3-0.9c-0.3-0.4-0.5-0.8-0.6-1.2
	c0-0.1-0.1-0.2-0.2-0.3c-0.1-0.1-0.2-0.1-0.4-0.1h-1.2c-0.1,0-0.3,0.1-0.4,0.2c-0.1,0.1-0.1,0.2-0.1,0.3c0,0.7,0.3,1.4,0.7,2
	c0.4,0.6,1,1.2,1.8,1.6c0.8,0.4,1.7,0.7,2.9,0.8v1.7C16.7,29.1,16.7,29.2,16.8,29.3z"/>
<linearGradient id="SVGID_00000021106185380383084310000012128227414545515452_" gradientUnits="userSpaceOnUse" x1="68.007" y1="-102.0423" x2="68.007" y2="-138.0423" gradientTransform="matrix(1 0 0 -1 -50 -102)">
	<stop  offset="0" style="stop-color:#FFFFFF"/>
	<stop  offset="1" style="stop-color:#FFFFFF;stop-opacity:0"/>
</linearGradient>
<path style="fill:none;stroke:url(#SVGID_00000021106185380383084310000012128227414545515452_);stroke-opacity:0.5;" d="M20.6,14.3
	L20.6,14.3L20.6,14.3c0.1,0.3,0.2,0.6,0.5,0.7l0,0l0,0c0.2,0.1,0.4,0.2,0.6,0.2H23c0.3,0,0.6-0.1,0.8-0.3l0,0l0,0
	c0.1-0.2,0.2-0.4,0.2-0.6h0l0,0c0-0.7-0.2-1.4-0.6-2c-0.4-0.7-1-1.3-1.8-1.8c-0.7-0.5-1.5-0.8-2.4-0.9V8.2c0-0.3-0.1-0.5-0.3-0.7
	c-0.2-0.2-0.5-0.3-0.7-0.3h-0.9c-0.3,0-0.6,0.1-0.8,0.3c-0.2,0.2-0.3,0.5-0.3,0.7v1.2c-1.4,0.2-2.6,0.7-3.5,1.6
	c-0.9,0.9-1.4,2.1-1.4,3.4c0,1,0.2,1.8,0.6,2.5l0,0l0,0c0.4,0.7,1.1,1.2,1.9,1.7c0.8,0.4,1.8,0.8,2.9,1.2l0,0c1.1,0.3,2,0.6,2.6,0.9
	c0.7,0.3,1.1,0.5,1.3,0.8l0,0l0,0c0.2,0.2,0.4,0.5,0.4,1c0,0.7-0.3,1.2-0.8,1.6c-0.5,0.4-1.4,0.6-2.7,0.6c-0.8,0-1.5-0.1-2-0.3
	c-0.5-0.2-0.8-0.5-1.1-0.8c-0.3-0.3-0.4-0.7-0.5-1c-0.1-0.2-0.2-0.4-0.3-0.6c-0.2-0.2-0.5-0.3-0.8-0.3h-1.2c-0.3,0-0.5,0.1-0.7,0.3
	c-0.2,0.2-0.3,0.4-0.3,0.7v0l0,0c0,0.8,0.3,1.6,0.7,2.3c0.5,0.7,1.1,1.3,2,1.8v0l0,0c0.7,0.4,1.6,0.7,2.6,0.8v1.3
	c0,0.3,0.1,0.5,0.3,0.7c0.2,0.2,0.5,0.3,0.8,0.3h0.9c0.3,0,0.5-0.1,0.7-0.3c0.2-0.2,0.3-0.5,0.3-0.7v-1.2c0.9-0.1,1.8-0.4,2.5-0.8
	c0.9-0.4,1.6-1,2-1.8c0.5-0.8,0.7-1.7,0.7-2.7c0-1-0.2-1.8-0.7-2.5c-0.4-0.7-1.1-1.2-2-1.7c-0.8-0.4-1.9-0.8-3.2-1.2
	c-1-0.3-1.8-0.6-2.5-0.9c-0.6-0.3-1-0.5-1.2-0.8c-0.2-0.3-0.3-0.6-0.3-1.1c0-0.7,0.3-1.2,0.7-1.5c0.5-0.3,1.3-0.5,2.2-0.5
	c0.9,0,1.6,0.2,2.2,0.6C20.3,13.3,20.5,13.8,20.6,14.3z M0.5,18C0.5,8.4,8.3,0.5,18,0.5c9.7,0,17.5,7.8,17.5,17.5
	c0,9.7-7.8,17.5-17.5,17.5C8.3,35.5,0.5,27.7,0.5,18z"/>
</svg>
