<?xml version="1.0" encoding="utf-8"?>
<!-- Generator: Adobe Illustrator 26.3.1, SVG Export Plug-In . SVG Version: 6.00 Build 0)  -->
<svg version="1.1" id="eUtfKsV2qQa1" text-rendering="geometricPrecision" shape-rendering="geometricPrecision"
	 xmlns="http://www.w3.org/2000/svg" xmlns:xlink="http://www.w3.org/1999/xlink" x="0px" y="0px" viewBox="0 0 36 36"
	 style="enable-background:new 0 0 36 36;" xml:space="preserve">
<style type="text/css">
	.st0{fill:url(#SVGID_1_);}
	.st1{fill:none;stroke:url(#SVGID_00000156565033245396611530000001506849006538465975_);stroke-opacity:0.5;}
</style>
<g>
	
		<linearGradient id="SVGID_1_" gradientUnits="userSpaceOnUse" x1="68.1787" y1="-102.6493" x2="67.7918" y2="-140.3158" gradientTransform="matrix(1 0 0 -1 -50 -102)">
		<stop  offset="0" style="stop-color:#6FB8FF"/>
		<stop  offset="1" style="stop-color:#1E90FF"/>
	</linearGradient>
	<path class="st0" d="M22.1,0h-8c-1.6,0-2.8,1.3-2.8,2.8v8.3H2.8C1.3,11.1,0,12.4,0,14v8c0,1.6,1.3,2.8,2.8,2.8h8.3v8.3
		c0,1.6,1.3,2.8,2.8,2.8h8.1c1.6,0,2.8-1.3,2.8-2.8v-8.3h8.3c1.6,0,2.8-1.3,2.8-2.8v-8c0-1.6-1.3-2.8-2.8-2.8h-8.3V2.8
		C25,1.3,23.7,0,22.1,0z"/>
	
		<linearGradient id="SVGID_00000085216560902483727630000010757476647348793487_" gradientUnits="userSpaceOnUse" x1="68" y1="-102" x2="68" y2="-138" gradientTransform="matrix(1 0 0 -1 -50 -102)">
		<stop  offset="0" style="stop-color:#FFFFFF"/>
		<stop  offset="1" style="stop-color:#FFFFFF;stop-opacity:0"/>
	</linearGradient>
	<path style="fill:none;stroke:url(#SVGID_00000085216560902483727630000010757476647348793487_);stroke-opacity:0.5;" d="
		M11.2,11.6h0.5v-0.5V2.8c0-1.2,1-2.3,2.3-2.3h8c1.3,0,2.4,1.1,2.3,2.3l0,0v0v8.4v0.5h0.5h8.3c1.2,0,2.3,1,2.3,2.3v8
		c0,1.2-1,2.3-2.3,2.3h-8.3h-0.5v0.5v8.3c0,1.2-1,2.3-2.3,2.3h-8.1c-1.2,0-2.3-1-2.3-2.3v-8.3v-0.5h-0.5H2.8c-1.2,0-2.3-1-2.3-2.3
		v-8c0-1.3,1.1-2.4,2.3-2.4H11.2z"/>
</g>
</svg>
