<?xml version="1.0" encoding="utf-8"?>
<!-- Generator: Adobe Illustrator 26.3.1, SVG Export Plug-In . SVG Version: 6.00 Build 0)  -->
<svg version="1.1" id="eUtfKsV2qQa1" text-rendering="geometricPrecision" shape-rendering="geometricPrecision"
	 xmlns="http://www.w3.org/2000/svg" xmlns:xlink="http://www.w3.org/1999/xlink" x="0px" y="0px" viewBox="0 0 36 36"
	 style="enable-background:new 0 0 36 36;" xml:space="preserve">
<style type="text/css">
	.st0{fill:url(#SVGID_1_);}
	.st1{fill:none;stroke:url(#SVGID_00000176031196211762078530000006635591262293674128_);stroke-opacity:0.5;}
	.st2{fill:url(#SVGID_00000024705229086122339370000012666896432554192785_);}
	.st3{fill:none;stroke:url(#SVGID_00000182513971125941148950000010893086891828775589_);stroke-opacity:0.5;}
	.st4{fill:url(#SVGID_00000171692762652808459860000003760837356269741725_);}
	.st5{fill:none;stroke:url(#SVGID_00000126294258367940485970000016730976019429433244_);stroke-opacity:0.5;}
</style>
<g>
	
		<linearGradient id="SVGID_1_" gradientUnits="userSpaceOnUse" x1="68.0244" y1="-107.1663" x2="67.9985" y2="-111.3329" gradientTransform="matrix(1 0 0 -1 -50 -102)">
		<stop  offset="0" style="stop-color:#6FB8FF"/>
		<stop  offset="1" style="stop-color:#1E90FF"/>
	</linearGradient>
	<path class="st0" d="M21.3,9.1c0-0.5-0.1-1-0.3-1.5c-0.2-0.5-0.4-0.9-0.7-1.3c-0.3-0.4-0.7-0.7-1.1-0.9c-0.4-0.2-0.8-0.3-1.3-0.3
		c-0.4,0-0.9,0.1-1.3,0.3c-0.4,0.2-0.8,0.5-1.1,0.9c-0.3,0.4-0.5,0.8-0.7,1.3c-0.2,0.5-0.3,1-0.3,1.5H21.3z"/>
	
		<linearGradient id="SVGID_00000054944707570666602910000005416343776130396594_" gradientUnits="userSpaceOnUse" x1="68.0002" y1="-107.0946" x2="68.0002" y2="-111.0765" gradientTransform="matrix(1 0 0 -1 -50 -102)">
		<stop  offset="0" style="stop-color:#FFFFFF"/>
		<stop  offset="1" style="stop-color:#FFFFFF;stop-opacity:0"/>
	</linearGradient>
	<path style="fill:none;stroke:url(#SVGID_00000054944707570666602910000005416343776130396594_);stroke-opacity:0.5;" d="M20.6,7.7
		c0.1,0.3,0.2,0.6,0.2,0.9h-5.5c0-0.3,0.1-0.6,0.2-0.9c0.1-0.4,0.4-0.8,0.6-1.1C16.3,6.3,16.6,6,17,5.8c0.3-0.2,0.7-0.3,1-0.3
		c0.4,0,0.7,0.1,1,0.3c0.3,0.2,0.6,0.4,0.9,0.7C20.2,6.9,20.4,7.3,20.6,7.7z"/>
	
		<linearGradient id="SVGID_00000038406457286470384810000008619657223229538487_" gradientUnits="userSpaceOnUse" x1="68.0434" y1="-110.5567" x2="67.9534" y2="-127.6482" gradientTransform="matrix(1 0 0 -1 -50 -102)">
		<stop  offset="0" style="stop-color:#6FB8FF"/>
		<stop  offset="1" style="stop-color:#1E90FF"/>
	</linearGradient>
	<path style="fill:url(#SVGID_00000038406457286470384810000008619657223229538487_);" d="M33.9,24.6c0-4.3-1.7-8.5-4.7-11.5
		c-3-3.1-7-4.8-11.3-4.8C13.7,8.3,9.7,10,6.7,13C3.7,16.1,2,20.3,2,24.6H33.9z"/>
	
		<linearGradient id="SVGID_00000141417390922683934970000012489049034789096324_" gradientUnits="userSpaceOnUse" x1="67.959" y1="-110.2625" x2="67.959" y2="-126.5966" gradientTransform="matrix(1 0 0 -1 -50 -102)">
		<stop  offset="0" style="stop-color:#FFFFFF"/>
		<stop  offset="1" style="stop-color:#FFFFFF;stop-opacity:0"/>
	</linearGradient>
	<path style="fill:none;stroke:url(#SVGID_00000141417390922683934970000012489049034789096324_);stroke-opacity:0.5;" d="
		M28.9,13.4c2.8,2.9,4.4,6.7,4.5,10.7H2.5c0.1-4,1.7-7.9,4.5-10.7c2.9-3,6.8-4.6,10.9-4.6C22,8.8,26,10.4,28.9,13.4z"/>
	
		<linearGradient id="SVGID_00000070800949746995655940000009596610248499321532_" gradientUnits="userSpaceOnUse" x1="68.0011" y1="-128.676" x2="67.9955" y2="-133.1829" gradientTransform="matrix(1 0 0 -1 -50 -102)">
		<stop  offset="0" style="stop-color:#6FB8FF"/>
		<stop  offset="1" style="stop-color:#1E90FF"/>
	</linearGradient>
	<path style="fill:url(#SVGID_00000070800949746995655940000009596610248499321532_);" d="M0.5,28c-0.3-0.7,0.2-1.4,0.9-1.4h33.1
		c0.7,0,1.2,0.7,0.9,1.4l-0.9,2.3c-0.2,0.4-0.5,0.6-0.9,0.6H2.4c-0.4,0-0.8-0.2-0.9-0.6L0.5,28z"/>
	
		<linearGradient id="SVGID_00000073701178219314764420000011623902127465461418_" gradientUnits="userSpaceOnUse" x1="68" y1="-128.5984" x2="68" y2="-132.9054" gradientTransform="matrix(1 0 0 -1 -50 -102)">
		<stop  offset="0" style="stop-color:#FFFFFF"/>
		<stop  offset="1" style="stop-color:#FFFFFF;stop-opacity:0"/>
	</linearGradient>
	<path style="fill:none;stroke:url(#SVGID_00000073701178219314764420000011623902127465461418_);stroke-opacity:0.5;" d="M1.5,27.1
		h33.1c0.4,0,0.6,0.4,0.5,0.7l-0.9,2.3c-0.1,0.2-0.3,0.3-0.5,0.3H2.4c-0.2,0-0.4-0.1-0.5-0.3L1,27.8C0.9,27.5,1.1,27.1,1.5,27.1z"/>
</g>
</svg>
