<?xml version="1.0" encoding="utf-8"?>
<!-- Generator: Adobe Illustrator 26.3.1, SVG Export Plug-In . SVG Version: 6.00 Build 0)  -->
<svg version="1.1" id="eUtfKsV2qQa1" text-rendering="geometricPrecision" shape-rendering="geometricPrecision"
	 xmlns="http://www.w3.org/2000/svg" xmlns:xlink="http://www.w3.org/1999/xlink" x="0px" y="0px" viewBox="0 0 36 36"
	 style="enable-background:new 0 0 36 36;" xml:space="preserve">
<style type="text/css">
	.st0{fill:url(#SVGID_1_);}
	.st1{fill:none;stroke:url(#SVGID_00000176031760193413464520000001567950868301017741_);stroke-opacity:0.5;}
	.st2{fill:url(#SVGID_00000120543457125515832690000007706873060953532805_);}
	.st3{fill:none;stroke:url(#SVGID_00000137117095432278136090000011470541506801615244_);stroke-opacity:0.5;}
	.st4{fill:url(#SVGID_00000036245310075546556240000017682672588316515501_);}
	.st5{fill:none;stroke:url(#SVGID_00000183936752554641833390000012806146241212770710_);stroke-opacity:0.5;}
</style>
<g>
	
		<linearGradient id="SVGID_1_" gradientUnits="userSpaceOnUse" x1="77.5653" y1="-120.3064" x2="77.3826" y2="-138.0934" gradientTransform="matrix(1 0 0 -1 -50 -102)">
		<stop  offset="0" style="stop-color:#6FB8FF"/>
		<stop  offset="1" style="stop-color:#1E90FF"/>
	</linearGradient>
	<path class="st0" d="M26.9,18.4c0.3-0.5,0.9-0.5,1.2,0l2.5,4.5l4.9,1.1c0.5,0.1,0.7,0.8,0.4,1.2L32.5,29l0.5,5.2
		c0,0.5-0.5,0.9-1,0.7l-4.6-2.1l-4.6,2.1c-0.5,0.2-1-0.2-1-0.7l0.5-5.2l-3.3-3.9c-0.3-0.4-0.1-1.1,0.4-1.2l4.9-1.1L26.9,18.4z"/>
	
		<linearGradient id="SVGID_00000102504017940395354240000009695593113532641925_" gradientUnits="userSpaceOnUse" x1="77.5" y1="-120" x2="77.5" y2="-136.9999" gradientTransform="matrix(1 0 0 -1 -50 -102)">
		<stop  offset="0" style="stop-color:#FFFFFF"/>
		<stop  offset="1" style="stop-color:#FFFFFF;stop-opacity:0"/>
	</linearGradient>
	<path style="fill:none;stroke:url(#SVGID_00000102504017940395354240000009695593113532641925_);stroke-opacity:0.5;" d="
		M30.2,23.1l0.1,0.2l0.2,0l4.9,1.1c0.1,0,0.1,0.1,0.1,0.1c0,0.1,0,0.2,0,0.2l-3.3,3.9L32,28.9l0,0.2l0.5,5.2c0,0.1,0,0.2-0.1,0.2
		c-0.1,0-0.1,0-0.2,0l-4.6-2.1l-0.2-0.1l-0.2,0.1l-4.6,2.1c-0.1,0-0.1,0-0.2,0c-0.1,0-0.1-0.1-0.1-0.2l0.5-5.2l0-0.2l-0.1-0.2
		l-3.3-3.9c-0.1-0.1-0.1-0.1,0-0.2c0-0.1,0.1-0.1,0.1-0.1l4.9-1.1l0.2,0l0.1-0.2l2.5-4.5c0-0.1,0.1-0.1,0.2-0.1c0.1,0,0.1,0,0.2,0.1
		L30.2,23.1z"/>
	
		<linearGradient id="SVGID_00000103965367475333474940000009134607115399543219_" gradientUnits="userSpaceOnUse" x1="58.5653" y1="-120.3064" x2="58.3826" y2="-138.0934" gradientTransform="matrix(1 0 0 -1 -50 -102)">
		<stop  offset="0" style="stop-color:#6FB8FF"/>
		<stop  offset="1" style="stop-color:#1E90FF"/>
	</linearGradient>
	<path style="fill:url(#SVGID_00000103965367475333474940000009134607115399543219_);" d="M7.9,18.4c0.3-0.5,0.9-0.5,1.2,0l2.5,4.5
		l4.9,1.1c0.5,0.1,0.7,0.8,0.4,1.2L13.5,29l0.5,5.2c0,0.5-0.5,0.9-1,0.7l-4.6-2.1l-4.6,2.1c-0.5,0.2-1-0.2-1-0.7L3.5,29l-3.3-3.9
		C-0.2,24.7,0,24.1,0.5,24l4.9-1.1L7.9,18.4z"/>
	
		<linearGradient id="SVGID_00000170258202457510303730000004138907885387526573_" gradientUnits="userSpaceOnUse" x1="58.5" y1="-120" x2="58.5" y2="-136.9999" gradientTransform="matrix(1 0 0 -1 -50 -102)">
		<stop  offset="0" style="stop-color:#FFFFFF"/>
		<stop  offset="1" style="stop-color:#FFFFFF;stop-opacity:0"/>
	</linearGradient>
	<path style="fill:none;stroke:url(#SVGID_00000170258202457510303730000004138907885387526573_);stroke-opacity:0.5;" d="
		M11.2,23.1l0.1,0.2l0.2,0l4.9,1.1c0.1,0,0.1,0.1,0.1,0.1c0,0.1,0,0.2,0,0.2l-3.3,3.9L13,28.9l0,0.2l0.5,5.2c0,0.1,0,0.2-0.1,0.2
		c-0.1,0-0.1,0-0.2,0l-4.6-2.1l-0.2-0.1l-0.2,0.1l-4.6,2.1c-0.1,0-0.1,0-0.2,0c-0.1,0-0.1-0.1-0.1-0.2L4,29.1l0-0.2l-0.1-0.2
		l-3.3-3.9c-0.1-0.1-0.1-0.1,0-0.2c0-0.1,0.1-0.1,0.1-0.1l4.9-1.1l0.2,0l0.1-0.2l2.5-4.5c0-0.1,0.1-0.1,0.2-0.1c0.1,0,0.1,0,0.2,0.1
		L11.2,23.1z"/>
	
		<linearGradient id="SVGID_00000015351590601020389110000012529935086733213366_" gradientUnits="userSpaceOnUse" x1="68.2549" y1="-103.3933" x2="68.0783" y2="-126.2384" gradientTransform="matrix(1 0 0 -1 -50 -102)">
		<stop  offset="0" style="stop-color:#6FB8FF"/>
		<stop  offset="1" style="stop-color:#1E90FF"/>
	</linearGradient>
	<path style="fill:url(#SVGID_00000015351590601020389110000012529935086733213366_);" d="M17.2,1.6c0.5-0.8,1.6-0.8,2,0l4.3,7.9
		l8.3,2c0.9,0.2,1.2,1.3,0.6,2.1L29.6,17c-1.1-1.5-3.5-1.3-4.4,0.4l-2,3.5c-0.1,0.1-0.2,0.2-0.3,0.2L19.1,22l0,0
		c-0.7,0.2-1.5,0.2-2.2,0l0,0l-3.8-0.9c-0.1,0-0.3-0.1-0.3-0.2l-2-3.5c-0.9-1.6-3.1-1.8-4.2-0.6L4,13.6c-0.6-0.7-0.2-1.9,0.6-2.1
		l8.3-2L17.2,1.6z"/>
	
		<linearGradient id="SVGID_00000170236689896314412740000002586152096999400884_" gradientUnits="userSpaceOnUse" x1="68.167" y1="-103" x2="68.167" y2="-133" gradientTransform="matrix(1 0 0 -1 -50 -102)">
		<stop  offset="0" style="stop-color:#FFFFFF"/>
		<stop  offset="1" style="stop-color:#FFFFFF;stop-opacity:0"/>
	</linearGradient>
	<path style="fill:none;stroke:url(#SVGID_00000170236689896314412740000002586152096999400884_);stroke-opacity:0.5;" d="M23,9.8
		l0.1,0.2l0.2,0.1l8.3,2c0.5,0.1,0.7,0.8,0.3,1.3l-2.4,3c-1.4-1.2-3.8-1-4.8,0.9l-2,3.5L19,21.5c-0.6,0.1-1.3,0.1-1.9,0l-3.8-0.9
		l-2-3.5c-1-1.7-3.2-2.1-4.6-1l-2.3-2.8C4,12.8,4.2,12.1,4.7,12l8.3-2l0.2-0.1l0.1-0.2l4.3-7.9c0.3-0.5,0.9-0.5,1.1,0L23,9.8z"/>
</g>
</svg>
