<?xml version="1.0" encoding="utf-8"?>
<!-- Generator: Adobe Illustrator 26.3.1, SVG Export Plug-In . SVG Version: 6.00 Build 0)  -->
<svg version="1.1" id="eUtfKsV2qQa1" text-rendering="geometricPrecision" shape-rendering="geometricPrecision"
	 xmlns="http://www.w3.org/2000/svg" xmlns:xlink="http://www.w3.org/1999/xlink" x="0px" y="0px" viewBox="0 0 36 36"
	 style="enable-background:new 0 0 36 36;" xml:space="preserve">
<style type="text/css">
	.st0{fill:url(#SVGID_1_);}
	
		.st1{fill:none;stroke:url(#SVGID_00000073710355994577771780000011889255304755967919_);stroke-linecap:round;stroke-linejoin:round;stroke-opacity:0.5;}
	.st2{fill:none;stroke:#98CDFF;stroke-linecap:round;stroke-linejoin:round;}
	.st3{fill:none;stroke:#5AAEFF;stroke-linecap:round;stroke-linejoin:round;}
	.st4{fill:url(#SVGID_00000035503497943438596010000012430344234031533224_);}
	
		.st5{fill:none;stroke:url(#SVGID_00000136413235829290461750000011383419441402724747_);stroke-linecap:round;stroke-linejoin:round;stroke-opacity:0.5;}
	
		.st6{fill:none;stroke:url(#SVGID_00000165214681250117856430000009158394954272253319_);stroke-linecap:round;stroke-linejoin:round;}
	
		.st7{fill:none;stroke:url(#SVGID_00000003097768706345152680000009767082490233585840_);stroke-linecap:round;stroke-linejoin:round;}
</style>
<g>
	
		<linearGradient id="SVGID_1_" gradientUnits="userSpaceOnUse" x1="58.8671" y1="-105.1847" x2="58.2663" y2="-137.3502" gradientTransform="matrix(1 0 0 -1 -50 -102)">
		<stop  offset="0" style="stop-color:#6FB8FF"/>
		<stop  offset="1" style="stop-color:#1E90FF"/>
	</linearGradient>
	<path class="st0" d="M10.6,2.6c3.5,0,6.3,2.8,6.3,6.3l0,17.2c0,4-3.2,7.2-7.2,7.2c-4,0-7.2-3.2-7.2-7.2c0-0.2,0-0.4,0-0.6
		c-1.5-1.6-2.5-4.8-2.5-7.4c0-3.6,1.8-7.1,4.3-8.5c0-0.2,0-0.5,0-0.7C4.3,5.5,7.2,2.6,10.6,2.6z"/>
	
		<linearGradient id="SVGID_00000182487296570313918690000014044094723685842097_" gradientUnits="userSpaceOnUse" x1="58.5138" y1="-104.6417" x2="58.5138" y2="-135.3583" gradientTransform="matrix(1 0 0 -1 -50 -102)">
		<stop  offset="0" style="stop-color:#FFFFFF"/>
		<stop  offset="1" style="stop-color:#FFFFFF;stop-opacity:0"/>
	</linearGradient>
	
		<path style="fill:none;stroke:url(#SVGID_00000182487296570313918690000014044094723685842097_);stroke-linecap:round;stroke-linejoin:round;stroke-opacity:0.5;" d="
		M3,25.6c0-0.1,0-0.3-0.1-0.4c-0.7-0.7-1.3-1.9-1.7-3.1c-0.4-1.3-0.6-2.7-0.6-3.9c0-3.5,1.7-6.8,4-8C4.8,10,4.9,9.8,4.9,9.6
		c0-0.2,0-0.4,0-0.6c0-3.2,2.6-5.8,5.8-5.8c3.2,0,5.8,2.6,5.8,5.8l0,17.2c0,3.7-3,6.7-6.7,6.7c-3.7,0-6.7-3-6.7-6.7
		C3,25.9,3,25.8,3,25.6z"/>
	<path class="st2" d="M7.9,14.4c-0.9-0.2-3-1.6-3.3-4.3"/>
	<path class="st3" d="M5,21.5C4,22.3,3.3,24,3,25.3"/>
	
		<linearGradient id="SVGID_00000000192299863080077250000011847554706505808052_" gradientUnits="userSpaceOnUse" x1="77.1328" y1="-105.1847" x2="77.7337" y2="-137.3502" gradientTransform="matrix(1 0 0 -1 -50 -102)">
		<stop  offset="0" style="stop-color:#6FB8FF"/>
		<stop  offset="1" style="stop-color:#1E90FF"/>
	</linearGradient>
	<path style="fill:url(#SVGID_00000000192299863080077250000011847554706505808052_);" d="M25.4,2.6c-3.5,0-6.3,2.8-6.3,6.3l0,17.2
		c0,4,3.2,7.2,7.2,7.2s7.2-3.2,7.2-7.2c0-0.2,0-0.4,0-0.6c1.5-1.6,2.5-4.8,2.5-7.4c0-3.6-1.8-7.1-4.3-8.5c0-0.2,0-0.5,0-0.7
		C31.7,5.5,28.8,2.6,25.4,2.6z"/>
	
		<linearGradient id="SVGID_00000136379587128207365720000010735090497317413292_" gradientUnits="userSpaceOnUse" x1="77.4862" y1="-104.6417" x2="77.4862" y2="-135.3583" gradientTransform="matrix(1 0 0 -1 -50 -102)">
		<stop  offset="0" style="stop-color:#FFFFFF"/>
		<stop  offset="1" style="stop-color:#FFFFFF;stop-opacity:0"/>
	</linearGradient>
	
		<path style="fill:none;stroke:url(#SVGID_00000136379587128207365720000010735090497317413292_);stroke-linecap:round;stroke-linejoin:round;stroke-opacity:0.5;" d="
		M33,25.6c0-0.1,0-0.3,0.1-0.4c0.7-0.7,1.3-1.9,1.7-3.1c0.4-1.3,0.6-2.7,0.6-3.9c0-3.5-1.7-6.8-4-8c-0.2-0.1-0.3-0.3-0.3-0.5
		c0-0.2,0-0.4,0-0.6c0-3.2-2.6-5.8-5.8-5.8c-3.2,0-5.8,2.6-5.8,5.8l0,17.2c0,3.7,3,6.7,6.7,6.7c3.7,0,6.7-3,6.7-6.7
		C33,25.9,33,25.8,33,25.6z"/>
	<path class="st2" d="M28.3,14.4c0.9-0.2,3-1.6,3.3-4.3"/>
	
		<linearGradient id="SVGID_00000083085257282822300090000002740340630518274185_" gradientUnits="userSpaceOnUse" x1="63.7732" y1="-116.9845" x2="63.7732" y2="-123.0097" gradientTransform="matrix(1 0 0 -1 -50 -102)">
		<stop  offset="0" style="stop-color:#8AC5FF"/>
		<stop  offset="1" style="stop-color:#63B2FF"/>
	</linearGradient>
	
		<path style="fill:none;stroke:url(#SVGID_00000083085257282822300090000002740340630518274185_);stroke-linecap:round;stroke-linejoin:round;" d="
		M11.1,21c3.8-0.4,5.3-4.4,5.4-6.1"/>
	
		<linearGradient id="SVGID_00000055678068639081799120000016262743595322829986_" gradientUnits="userSpaceOnUse" x1="72.2651" y1="-116.9845" x2="72.2651" y2="-123.0097" gradientTransform="matrix(1 0 0 -1 -50 -102)">
		<stop  offset="0" style="stop-color:#8AC5FF"/>
		<stop  offset="1" style="stop-color:#63B2FF"/>
	</linearGradient>
	
		<path style="fill:none;stroke:url(#SVGID_00000055678068639081799120000016262743595322829986_);stroke-linecap:round;stroke-linejoin:round;" d="
		M25,21c-3.8-0.4-5.3-4.4-5.4-6.1"/>
	<path class="st3" d="M31,21c0.9,0.7,1.7,2.4,1.9,3.8"/>
</g>
</svg>
