<?xml version="1.0" encoding="utf-8"?>
<!-- Generator: Adobe Illustrator 26.3.1, SVG Export Plug-In . SVG Version: 6.00 Build 0)  -->
<svg version="1.1" id="eUtfKsV2qQa1" text-rendering="geometricPrecision" shape-rendering="geometricPrecision"
	 xmlns="http://www.w3.org/2000/svg" xmlns:xlink="http://www.w3.org/1999/xlink" x="0px" y="0px" viewBox="0 0 36 36"
	 style="enable-background:new 0 0 36 36;" xml:space="preserve">
<style type="text/css">
	.st0{fill:url(#SVGID_1_);}
	.st1{fill:#FFFFFF;filter:url(#Adobe_OpacityMaskFilter);}
	
		.st2{mask:url(#path-1-inside-1_4000_316_00000056420979691820770250000001587268212990920073_);fill:url(#SVGID_00000047781457205854133140000005454668616206278554_);fill-opacity:0.5;}
</style>
<linearGradient id="SVGID_1_" gradientUnits="userSpaceOnUse" x1="68.1764" y1="-104.2897" x2="67.8513" y2="-138.8179" gradientTransform="matrix(1 0 0 -1 -50 -102)">
	<stop  offset="0" style="stop-color:#6FB8FF"/>
	<stop  offset="1" style="stop-color:#1E90FF"/>
</linearGradient>
<path class="st0" d="M25.3,1.7c-2.7,0-5.2,1-7.2,2.9c-2-1.8-4.5-2.9-7.2-2.9c-6,0-10.8,5-10.8,11.1c0,1.2,0.4,2.5,1,4l0.8,1.6
	c1.5,2.5,3.8,5.3,7,8.5c4.3,4.3,8.7,7.6,8.7,7.6c0.1,0.1,0.3,0.2,0.5,0.2s0.3-0.1,0.5-0.2c0,0,4.4-3.4,8.7-7.6c3.2-3.2,5.5-6,7-8.5
	l0.8-1.6c0.7-1.5,1-2.8,1-4C36.1,6.7,31.3,1.7,25.3,1.7z"/>
<defs>
	<filter id="Adobe_OpacityMaskFilter" filterUnits="userSpaceOnUse" x="-0.9" y="0.7" width="38" height="35">
		<feColorMatrix  type="matrix" values="1 0 0 0 0  0 1 0 0 0  0 0 1 0 0  0 0 0 1 0"/>
	</filter>
</defs>
<mask maskUnits="userSpaceOnUse" x="-0.9" y="0.7" width="38" height="35" id="path-1-inside-1_4000_316_00000056420979691820770250000001587268212990920073_">
	<path class="st1" d="M25.3,1.7c-2.7,0-5.2,1-7.2,2.9c-2-1.8-4.5-2.9-7.2-2.9c-6,0-10.8,5-10.8,11.1c0,1.2,0.4,2.5,1,4l0.8,1.6
		c1.5,2.5,3.8,5.3,7,8.5c4.3,4.3,8.7,7.6,8.7,7.6c0.1,0.1,0.3,0.2,0.5,0.2s0.3-0.1,0.5-0.2c0,0,4.4-3.4,8.7-7.6c3.2-3.2,5.5-6,7-8.5
		l0.8-1.6c0.7-1.5,1-2.8,1-4C36.1,6.7,31.3,1.7,25.3,1.7z"/>
</mask>
<linearGradient id="SVGID_00000137835708705453522520000006644903427073550485_" gradientUnits="userSpaceOnUse" x1="68.0776" y1="-103.6953" x2="68.0776" y2="-136.6953" gradientTransform="matrix(1 0 0 -1 -50 -102)">
	<stop  offset="0" style="stop-color:#FFFFFF"/>
	<stop  offset="1" style="stop-color:#FFFFFF;stop-opacity:0"/>
</linearGradient>
<path style="mask:url(#path-1-inside-1_4000_316_00000056420979691820770250000001587268212990920073_);fill:url(#SVGID_00000137835708705453522520000006644903427073550485_);fill-opacity:0.5;" d="
	M18.1,4.6l-0.7,0.7L18.1,6l0.7-0.6L18.1,4.6z M1.1,16.8l-0.9,0.4l0,0l0,0L1.1,16.8z M1.9,18.4L1,18.8l0,0l0,0L1.9,18.4z M17.6,34.5
	l0.7-0.7l-0.1-0.1l-0.1,0L17.6,34.5z M18.6,34.5l0.4,0.9l0.1,0l0.1-0.1L18.6,34.5z M27.3,26.9l0.7,0.7l0,0L27.3,26.9z M34.3,18.4
	l0.9,0.5l0,0l0,0L34.3,18.4z M35.1,16.8l0.9,0.4l0,0l0,0L35.1,16.8z M25.3,0.7c-3,0-5.7,1.1-7.9,3.2l1.4,1.5
	c1.8-1.7,4.1-2.6,6.5-2.6V0.7z M18.7,3.9c-2.2-1.9-4.9-3.2-7.9-3.2v2c2.4,0,4.7,1,6.5,2.6L18.7,3.9z M10.9,0.7
	C4.3,0.7-0.9,6.2-0.9,12.8h2c0-5.6,4.4-10.1,9.8-10.1V0.7z M-0.9,12.8c0,1.4,0.5,2.9,1.1,4.4L2,16.4c-0.6-1.5-0.9-2.6-0.9-3.6H-0.9z
	 M0.2,17.2L1,18.8l1.8-0.9L2,16.3L0.2,17.2z M1,18.9c1.6,2.6,3.9,5.5,7.2,8.7l1.4-1.4c-3.2-3.2-5.4-5.9-6.8-8.3L1,18.9z M8.2,27.6
	c2.2,2.2,4.4,4.1,6,5.5c0.8,0.7,1.5,1.2,2,1.6c0.2,0.2,0.4,0.3,0.6,0.4c0.1,0.1,0.1,0.1,0.2,0.1c0,0,0,0,0,0c0,0,0,0,0,0
	c0,0,0,0,0,0c0,0,0,0,0,0c0,0,0,0,0,0c0,0,0,0,0.6-0.8c0.6-0.8,0.6-0.8,0.6-0.8c0,0,0,0,0,0c0,0,0,0,0,0c0,0,0,0,0,0c0,0,0,0,0,0
	c0,0,0,0,0,0c0,0-0.1-0.1-0.1-0.1c-0.1-0.1-0.3-0.2-0.5-0.4c-0.5-0.4-1.2-0.9-2-1.6c-1.6-1.4-3.8-3.2-5.9-5.4L8.2,27.6z M16.9,35.2
	c0.3,0.3,0.7,0.5,1.2,0.5v-2c0.1,0,0.1,0,0.1,0c0,0,0,0,0,0c0,0,0,0,0.1,0.1L16.9,35.2z M18.1,35.7c0.3,0,0.5-0.1,0.7-0.2
	c0.1,0,0.1-0.1,0.2-0.1c0,0,0.1,0,0.1,0l-0.9-1.8c-0.1,0-0.1,0.1-0.2,0.1c0,0,0,0,0,0c0,0,0,0,0,0c0,0,0,0,0.1,0c0,0,0.1,0,0.1,0
	V35.7z M18.6,34.5c0.6,0.8,0.6,0.8,0.6,0.8c0,0,0,0,0,0c0,0,0,0,0,0c0,0,0,0,0,0c0,0,0,0,0,0c0,0,0,0,0,0c0,0,0.1-0.1,0.2-0.1
	c0.1-0.1,0.3-0.3,0.6-0.4c0.5-0.4,1.2-0.9,2-1.6c1.6-1.4,3.8-3.3,6-5.4l-1.4-1.4c-2.1,2.1-4.3,4-5.9,5.3c-0.8,0.7-1.5,1.2-2,1.6
	c-0.2,0.2-0.4,0.3-0.5,0.4c-0.1,0-0.1,0.1-0.1,0.1c0,0,0,0,0,0c0,0,0,0,0,0c0,0,0,0,0,0c0,0,0,0,0,0c0,0,0,0,0,0
	C18,33.7,18,33.7,18.6,34.5z M28,27.6c3.2-3.2,5.6-6.1,7.2-8.7l-1.7-1c-1.4,2.4-3.7,5.1-6.8,8.3L28,27.6z M35.2,18.8l0.8-1.6
	l-1.8-0.9l-0.8,1.6L35.2,18.8z M36,17.2c0.7-1.6,1.1-3,1.1-4.4h-2c0,1-0.3,2.2-0.9,3.6L36,17.2z M37.1,12.8
	c0-6.6-5.2-12.1-11.8-12.1v2c5.4,0,9.8,4.5,9.8,10.1H37.1z"/>
</svg>
