<?xml version="1.0" encoding="utf-8"?>
<!-- Generator: Adobe Illustrator 26.3.1, SVG Export Plug-In . SVG Version: 6.00 Build 0)  -->
<svg version="1.1" id="eUtfKsV2qQa1" text-rendering="geometricPrecision" shape-rendering="geometricPrecision"
	 xmlns="http://www.w3.org/2000/svg" xmlns:xlink="http://www.w3.org/1999/xlink" x="0px" y="0px" viewBox="0 0 36 36"
	 style="enable-background:new 0 0 36 36;" xml:space="preserve">
<style type="text/css">
	.st0{fill:url(#SVGID_1_);}
	.st1{fill:none;stroke:url(#SVGID_00000029027963719912335920000016767501941267049098_);stroke-opacity:0.5;}
	.st2{fill:url(#SVGID_00000129197672985541892770000014906952966186954679_);}
	.st3{fill:none;stroke:url(#SVGID_00000116925722477182877360000017101073797102937005_);stroke-opacity:0.5;}
	.st4{fill:url(#SVGID_00000152225268024194844200000017569610635767476640_);}
	.st5{fill:none;stroke:url(#SVGID_00000167375049460467035930000004267276179787449478_);stroke-opacity:0.5;}
	.st6{fill:url(#SVGID_00000096058262688999808390000007406146699548441502_);}
	.st7{fill:none;stroke:url(#SVGID_00000163049303729742069540000000423557352999983549_);stroke-opacity:0.5;}
</style>
<g>
	
		<linearGradient id="SVGID_1_" gradientUnits="userSpaceOnUse" x1="66.7143" y1="-103.5649" x2="66.9917" y2="-125.2735" gradientTransform="matrix(1 0 0 -1 -50 -102)">
		<stop  offset="0" style="stop-color:#6FB8FF"/>
		<stop  offset="1" style="stop-color:#1E90FF"/>
	</linearGradient>
	<path class="st0" d="M14.1,1.7c1.3-1.9,4.1-1.9,5.4,0c0.7,1.1,2.1,1.7,3.4,1.4c2.3-0.5,4.3,1.6,3.8,3.8c-0.3,1.3,0.3,2.6,1.4,3.4
		c1.9,1.3,1.9,4.1,0,5.4c-1.1,0.7-1.7,2.1-1.4,3.4c0.5,2.3-1.6,4.3-3.8,3.8c-1.3-0.3-2.6,0.3-3.4,1.4c-1.3,1.9-4.1,1.9-5.4,0
		c-0.7-1.1-2.1-1.7-3.4-1.4c-2.3,0.5-4.3-1.6-3.8-3.8c0.3-1.3-0.3-2.6-1.4-3.4c-1.9-1.3-1.9-4.1,0-5.4C6.6,9.6,7.2,8.3,6.9,7
		c-0.5-2.3,1.6-4.3,3.8-3.8C12.1,3.4,13.4,2.8,14.1,1.7z"/>
	
		<linearGradient id="SVGID_00000156567427149473238520000001343075024776967048_" gradientUnits="userSpaceOnUse" x1="66.8612" y1="-102.2796" x2="66.8612" y2="-127.8475" gradientTransform="matrix(1 0 0 -1 -50 -102)">
		<stop  offset="0" style="stop-color:#FFFFFF"/>
		<stop  offset="1" style="stop-color:#FFFFFF;stop-opacity:0"/>
	</linearGradient>
	<path style="fill:none;stroke:url(#SVGID_00000156567427149473238520000001343075024776967048_);stroke-opacity:0.5;" d="M10.7,3.6
		c1.5,0.3,3-0.3,3.9-1.6c1.1-1.6,3.5-1.6,4.6,0C20,3.3,21.5,3.9,23,3.6c1.9-0.4,3.6,1.3,3.3,3.3c-0.3,1.5,0.3,3,1.6,3.9
		c1.6,1.1,1.6,3.5,0,4.6c-1.3,0.8-1.9,2.4-1.6,3.9c0.4,1.9-1.3,3.6-3.3,3.3c-1.5-0.3-3,0.3-3.9,1.6c-1.1,1.6-3.5,1.6-4.6,0
		c-0.8-1.3-2.4-1.9-3.9-1.6c-1.9,0.4-3.6-1.3-3.3-3.3c0.3-1.5-0.3-3-1.6-3.9c-1.6-1.1-1.6-3.5,0-4.6c1.3-0.8,1.9-2.4,1.6-3.9
		C7,4.9,8.7,3.2,10.7,3.6z"/>
	
		<linearGradient id="SVGID_00000007387306823253438540000009427804008628909243_" gradientUnits="userSpaceOnUse" x1="66.7143" y1="-103.5649" x2="66.9917" y2="-125.2735" gradientTransform="matrix(1 0 0 -1 -50 -102)">
		<stop  offset="0" style="stop-color:#6FB8FF"/>
		<stop  offset="1" style="stop-color:#1E90FF"/>
	</linearGradient>
	<path style="fill:url(#SVGID_00000007387306823253438540000009427804008628909243_);" d="M14.1,1.7c1.3-1.9,4.1-1.9,5.4,0
		c0.7,1.1,2.1,1.7,3.4,1.4c2.3-0.5,4.3,1.6,3.8,3.8c-0.3,1.3,0.3,2.6,1.4,3.4c1.9,1.3,1.9,4.1,0,5.4c-1.1,0.7-1.7,2.1-1.4,3.4
		c0.5,2.3-1.6,4.3-3.8,3.8c-1.3-0.3-2.6,0.3-3.4,1.4c-1.3,1.9-4.1,1.9-5.4,0c-0.7-1.1-2.1-1.7-3.4-1.4c-2.3,0.5-4.3-1.6-3.8-3.8
		c0.3-1.3-0.3-2.6-1.4-3.4c-1.9-1.3-1.9-4.1,0-5.4C6.6,9.6,7.2,8.3,6.9,7c-0.5-2.3,1.6-4.3,3.8-3.8C12.1,3.4,13.4,2.8,14.1,1.7z"/>
	
		<linearGradient id="SVGID_00000100340665399184374120000003029667094998523569_" gradientUnits="userSpaceOnUse" x1="66.8612" y1="-102.2796" x2="66.8612" y2="-127.8475" gradientTransform="matrix(1 0 0 -1 -50 -102)">
		<stop  offset="0" style="stop-color:#FFFFFF"/>
		<stop  offset="1" style="stop-color:#FFFFFF;stop-opacity:0"/>
	</linearGradient>
	<path style="fill:none;stroke:url(#SVGID_00000100340665399184374120000003029667094998523569_);stroke-opacity:0.5;" d="M10.7,3.6
		c1.5,0.3,3-0.3,3.9-1.6c1.1-1.6,3.5-1.6,4.6,0C20,3.3,21.5,3.9,23,3.6c1.9-0.4,3.6,1.3,3.3,3.3c-0.3,1.5,0.3,3,1.6,3.9
		c1.6,1.1,1.6,3.5,0,4.6c-1.3,0.8-1.9,2.4-1.6,3.9c0.4,1.9-1.3,3.6-3.3,3.3c-1.5-0.3-3,0.3-3.9,1.6c-1.1,1.6-3.5,1.6-4.6,0
		c-0.8-1.3-2.4-1.9-3.9-1.6c-1.9,0.4-3.6-1.3-3.3-3.3c0.3-1.5-0.3-3-1.6-3.9c-1.6-1.1-1.6-3.5,0-4.6c1.3-0.8,1.9-2.4,1.6-3.9
		C7,4.9,8.7,3.2,10.7,3.6z"/>
	
		<linearGradient id="SVGID_00000068671104087573752130000009026035614392933534_" gradientUnits="userSpaceOnUse" x1="59.5714" y1="-124.2133" x2="59.4318" y2="-138.5995" gradientTransform="matrix(1 0 0 -1 -50 -102)">
		<stop  offset="0" style="stop-color:#6FB8FF"/>
		<stop  offset="1" style="stop-color:#1E90FF"/>
	</linearGradient>
	<path style="fill:url(#SVGID_00000068671104087573752130000009026035614392933534_);" d="M6.7,23.8l-3.8,6.6
		c-0.2,0.3,0.1,0.8,0.5,0.7l5.2-0.3l2.3,4.7c0.2,0.4,0.7,0.4,0.9,0l4.4-7.7c-1.4-0.2-2.8-1-3.7-2.3c-0.3-0.4-0.8-0.6-1.3-0.5
		C9.5,25.3,7.8,24.8,6.7,23.8z"/>
	
		<linearGradient id="SVGID_00000028290811365718130590000003231008830464589237_" gradientUnits="userSpaceOnUse" x1="67.0296" y1="-118.0907" x2="56.1735" y2="-136.894" gradientTransform="matrix(1 0 0 -1 -50 -102)">
		<stop  offset="0" style="stop-color:#FFFFFF"/>
		<stop  offset="1" style="stop-color:#FFFFFF;stop-opacity:0"/>
	</linearGradient>
	<path style="fill:none;stroke:url(#SVGID_00000028290811365718130590000003231008830464589237_);stroke-opacity:0.5;" d="M3.3,30.6
		l3.5-6.1c1.2,0.9,2.8,1.3,4.5,0.9c0.3-0.1,0.6,0.1,0.8,0.3c0.8,1.3,2,2.1,3.4,2.4l-4.1,7.1L9,30.5l-0.1-0.3l-0.3,0L3.3,30.6z"/>
	
		<linearGradient id="SVGID_00000038394217230767507270000013292295452173839793_" gradientUnits="userSpaceOnUse" x1="76.4047" y1="-124.2367" x2="76.2694" y2="-138.4791" gradientTransform="matrix(1 0 0 -1 -50 -102)">
		<stop  offset="0" style="stop-color:#6FB8FF"/>
		<stop  offset="1" style="stop-color:#1E90FF"/>
	</linearGradient>
	<path style="fill:url(#SVGID_00000038394217230767507270000013292295452173839793_);" d="M19.5,27.2l4.7,8.2c0.2,0.3,0.7,0.3,0.9,0
		l2.3-4.7l5.2,0.3c0.4,0,0.7-0.4,0.5-0.7L28.4,22c-1,2.1-3.3,3.5-5.8,3c-0.5-0.1-1,0.1-1.3,0.5C20.8,26.2,20.2,26.8,19.5,27.2z"/>
	
		<linearGradient id="SVGID_00000053516323463277878600000018234139354576478649_" gradientUnits="userSpaceOnUse" x1="68.2858" y1="-116.783" x2="79.1419" y2="-135.5864" gradientTransform="matrix(1 0 0 -1 -50 -102)">
		<stop  offset="0" style="stop-color:#FFFFFF"/>
		<stop  offset="1" style="stop-color:#FFFFFF;stop-opacity:0"/>
	</linearGradient>
	<path style="fill:none;stroke:url(#SVGID_00000053516323463277878600000018234139354576478649_);stroke-opacity:0.5;" d="M28.4,23
		l4.3,7.5l-5.2-0.3l-0.3,0L27,30.4l-2.3,4.7l-4.5-7.8c0.6-0.4,1.1-0.9,1.5-1.5c0.2-0.3,0.5-0.4,0.8-0.3l0.1-0.4l-0.1,0.4
		C24.9,25.9,27.2,24.8,28.4,23z"/>
</g>
</svg>
