<?xml version="1.0" encoding="utf-8"?>
<!-- Generator: Adobe Illustrator 26.3.1, SVG Export Plug-In . SVG Version: 6.00 Build 0)  -->
<svg version="1.1" id="eUtfKsV2qQa1" text-rendering="geometricPrecision" shape-rendering="geometricPrecision"
	 xmlns="http://www.w3.org/2000/svg" xmlns:xlink="http://www.w3.org/1999/xlink" x="0px" y="0px" viewBox="0 0 36 36"
	 style="enable-background:new 0 0 36 36;" xml:space="preserve">
<style type="text/css">
	.st0{fill:url(#SVGID_1_);}
	.st1{fill:none;stroke:url(#SVGID_00000007417016403699484510000001457956434914007740_);stroke-opacity:0.5;}
	.st2{fill:url(#SVGID_00000154405192769885654880000009646808694874229179_);}
	.st3{fill:none;stroke:url(#SVGID_00000168080729615537312390000004991286743539442081_);stroke-opacity:0.5;}
	.st4{fill:url(#SVGID_00000027588923070859416080000009009202692265577370_);}
	.st5{fill:none;stroke:url(#SVGID_00000125598558813277834110000011849914285929802907_);stroke-opacity:0.5;}
	.st6{fill:url(#SVGID_00000126295147803714916230000003058461579009187219_);}
	.st7{fill:none;stroke:url(#SVGID_00000032616255891590476900000005290726453769672376_);stroke-opacity:0.5;}
	.st8{fill:url(#SVGID_00000123435242466439422220000002809951397807028135_);}
	.st9{fill:none;stroke:url(#SVGID_00000121240978405419701510000005827547733243228317_);stroke-opacity:0.5;}
	.st10{fill:url(#SVGID_00000168795940604921020920000004221509267312007321_);}
	.st11{fill:none;stroke:url(#SVGID_00000124875657031916646780000006368363465500728459_);stroke-opacity:0.5;}
	.st12{fill:url(#SVGID_00000158719885725966890650000007645101908788237475_);}
	.st13{fill:none;stroke:url(#SVGID_00000178189306506257839450000011887301004531342996_);stroke-opacity:0.5;}
	.st14{fill:url(#SVGID_00000134959148587180119620000002307855700035597238_);}
	.st15{fill:none;stroke:url(#SVGID_00000060024973273006628340000006422432771308448643_);stroke-opacity:0.5;}
	.st16{fill:url(#SVGID_00000039829072424602110280000002578929088506782337_);}
	.st17{fill:none;stroke:url(#SVGID_00000178192117991406755490000011119628550857928370_);stroke-opacity:0.5;}
	.st18{fill:url(#SVGID_00000016064483462718632580000009666527103149202856_);}
	.st19{fill:none;stroke:url(#SVGID_00000049207788088008841090000004261648490776411554_);stroke-opacity:0.5;}
	.st20{fill:url(#SVGID_00000098933656204870354480000010798256047235493536_);}
	.st21{fill:none;stroke:url(#SVGID_00000109715765613804828340000005148059872151247286_);stroke-opacity:0.5;}
	.st22{fill:url(#SVGID_00000002384518626986567720000000705019909428658564_);}
	.st23{fill:none;stroke:url(#SVGID_00000079465446095074559070000008353909118264457651_);stroke-opacity:0.5;}
	.st24{fill:url(#SVGID_00000041292312757201369560000004119878583200546950_);}
	.st25{fill:none;stroke:url(#SVGID_00000115475695427936852340000006109223659403091107_);stroke-opacity:0.5;}
	.st26{fill:url(#SVGID_00000086672631926416321070000015609624198809020559_);}
	.st27{fill:none;stroke:url(#SVGID_00000159431851813417934720000006823543235782241412_);stroke-opacity:0.5;}
	.st28{fill:url(#SVGID_00000008119296870253994480000013278001872659116721_);}
	.st29{fill:none;stroke:url(#SVGID_00000018228467556768458030000006304459875025150092_);stroke-opacity:0.5;}
	.st30{fill:url(#SVGID_00000127731618179959947980000001925705716359479473_);}
	.st31{fill:none;stroke:url(#SVGID_00000065767207603016404330000011841194562691903117_);stroke-opacity:0.5;}
	.st32{fill:url(#SVGID_00000077324483892229141250000010356567717893856402_);}
	.st33{fill:none;stroke:url(#SVGID_00000002354993813689264100000002301690119995426997_);stroke-opacity:0.5;}
</style>
<g>
	
		<linearGradient id="SVGID_1_" gradientUnits="userSpaceOnUse" x1="55.0045" y1="627.854" x2="54.9948" y2="630.9932" gradientTransform="matrix(1 0 0 1 -50 -614)">
		<stop  offset="0" style="stop-color:#6FB8FF"/>
		<stop  offset="1" style="stop-color:#1E90FF"/>
	</linearGradient>
	<path class="st0" d="M1,13.8h8c0.6,0,1,0.4,1,1v1c0,0.6-0.4,1-1,1H1c-0.6,0-1-0.4-1-1v-1C0,14.2,0.4,13.8,1,13.8z"/>
	
		<linearGradient id="SVGID_00000027563269555281635400000005107076686101570721_" gradientUnits="userSpaceOnUse" x1="50" y1="629.3" x2="60" y2="629.3" gradientTransform="matrix(1 0 0 1 -50 -614)">
		<stop  offset="0" style="stop-color:#FFFFFF"/>
		<stop  offset="1" style="stop-color:#FFFFFF;stop-opacity:0"/>
	</linearGradient>
	<path style="fill:none;stroke:url(#SVGID_00000027563269555281635400000005107076686101570721_);stroke-opacity:0.5;" d="M1,14.3h8
		c0.3,0,0.5,0.2,0.5,0.5v1c0,0.3-0.2,0.5-0.5,0.5H1c-0.3,0-0.5-0.2-0.5-0.5v-1C0.5,14.5,0.7,14.3,1,14.3z"/>
	
		<linearGradient id="SVGID_00000155127373135871175150000013492563245469460136_" gradientUnits="userSpaceOnUse" x1="55.0045" y1="632.854" x2="54.9948" y2="635.9932" gradientTransform="matrix(1 0 0 1 -50 -614)">
		<stop  offset="0" style="stop-color:#6FB8FF"/>
		<stop  offset="1" style="stop-color:#1E90FF"/>
	</linearGradient>
	<path style="fill:url(#SVGID_00000155127373135871175150000013492563245469460136_);" d="M1,18.8h8c0.6,0,1,0.4,1,1v1
		c0,0.6-0.4,1-1,1H1c-0.6,0-1-0.4-1-1v-1C0,19.2,0.4,18.8,1,18.8z"/>
	
		<linearGradient id="SVGID_00000062154568226219159750000004148786274310985637_" gradientUnits="userSpaceOnUse" x1="50" y1="634.3" x2="60" y2="634.3" gradientTransform="matrix(1 0 0 1 -50 -614)">
		<stop  offset="0" style="stop-color:#FFFFFF"/>
		<stop  offset="1" style="stop-color:#FFFFFF;stop-opacity:0"/>
	</linearGradient>
	<path style="fill:none;stroke:url(#SVGID_00000062154568226219159750000004148786274310985637_);stroke-opacity:0.5;" d="M1,19.3h8
		c0.3,0,0.5,0.2,0.5,0.5v1c0,0.3-0.2,0.5-0.5,0.5H1c-0.3,0-0.5-0.2-0.5-0.5v-1C0.5,19.5,0.7,19.3,1,19.3z"/>
	
		<linearGradient id="SVGID_00000154387626857482690780000013990952035576501138_" gradientUnits="userSpaceOnUse" x1="55.0045" y1="637.854" x2="54.9948" y2="640.9932" gradientTransform="matrix(1 0 0 1 -50 -614)">
		<stop  offset="0" style="stop-color:#6FB8FF"/>
		<stop  offset="1" style="stop-color:#1E90FF"/>
	</linearGradient>
	<path style="fill:url(#SVGID_00000154387626857482690780000013990952035576501138_);" d="M1,23.8h8c0.6,0,1,0.4,1,1v1
		c0,0.6-0.4,1-1,1H1c-0.6,0-1-0.4-1-1v-1C0,24.2,0.4,23.8,1,23.8z"/>
	
		<linearGradient id="SVGID_00000084509800977395660910000009272116809970888076_" gradientUnits="userSpaceOnUse" x1="50" y1="639.3" x2="60" y2="639.3" gradientTransform="matrix(1 0 0 1 -50 -614)">
		<stop  offset="0" style="stop-color:#FFFFFF"/>
		<stop  offset="1" style="stop-color:#FFFFFF;stop-opacity:0"/>
	</linearGradient>
	<path style="fill:none;stroke:url(#SVGID_00000084509800977395660910000009272116809970888076_);stroke-opacity:0.5;" d="M1,24.3h8
		c0.3,0,0.5,0.2,0.5,0.5v1c0,0.3-0.2,0.5-0.5,0.5H1c-0.3,0-0.5-0.2-0.5-0.5v-1C0.5,24.5,0.7,24.3,1,24.3z"/>
	
		<linearGradient id="SVGID_00000114037904437395177090000015215295705440171660_" gradientUnits="userSpaceOnUse" x1="55.0045" y1="622.854" x2="54.9948" y2="625.9932" gradientTransform="matrix(1 0 0 1 -50 -614)">
		<stop  offset="0" style="stop-color:#6FB8FF"/>
		<stop  offset="1" style="stop-color:#1E90FF"/>
	</linearGradient>
	<path style="fill:url(#SVGID_00000114037904437395177090000015215295705440171660_);" d="M1,8.8h8c0.6,0,1,0.4,1,1v1
		c0,0.6-0.4,1-1,1H1c-0.6,0-1-0.4-1-1v-1C0,9.2,0.4,8.8,1,8.8z"/>
	
		<linearGradient id="SVGID_00000094596660530077024700000003288904250413097900_" gradientUnits="userSpaceOnUse" x1="50" y1="624.3" x2="60" y2="624.3" gradientTransform="matrix(1 0 0 1 -50 -614)">
		<stop  offset="0" style="stop-color:#FFFFFF"/>
		<stop  offset="1" style="stop-color:#FFFFFF;stop-opacity:0"/>
	</linearGradient>
	<path style="fill:none;stroke:url(#SVGID_00000094596660530077024700000003288904250413097900_);stroke-opacity:0.5;" d="M1,9.3h8
		c0.3,0,0.5,0.2,0.5,0.5v1c0,0.3-0.2,0.5-0.5,0.5H1c-0.3,0-0.5-0.2-0.5-0.5v-1C0.5,9.5,0.7,9.3,1,9.3z"/>
</g>
<g>
	
		<linearGradient id="SVGID_00000170241475743297965620000013630848305885292199_" gradientUnits="userSpaceOnUse" x1="81.0045" y1="627.854" x2="80.9948" y2="630.9932" gradientTransform="matrix(1 0 0 1 -50 -614)">
		<stop  offset="0" style="stop-color:#6FB8FF"/>
		<stop  offset="1" style="stop-color:#1E90FF"/>
	</linearGradient>
	<path style="fill:url(#SVGID_00000170241475743297965620000013630848305885292199_);" d="M27,13.8h8c0.6,0,1,0.4,1,1v1
		c0,0.6-0.4,1-1,1h-8c-0.6,0-1-0.4-1-1v-1C26,14.2,26.4,13.8,27,13.8z"/>
	
		<linearGradient id="SVGID_00000088131523835636114610000002292558030076208001_" gradientUnits="userSpaceOnUse" x1="76" y1="629.3" x2="86" y2="629.3" gradientTransform="matrix(1 0 0 1 -50 -614)">
		<stop  offset="0" style="stop-color:#FFFFFF"/>
		<stop  offset="1" style="stop-color:#FFFFFF;stop-opacity:0"/>
	</linearGradient>
	<path style="fill:none;stroke:url(#SVGID_00000088131523835636114610000002292558030076208001_);stroke-opacity:0.5;" d="M27,14.3
		h8c0.3,0,0.5,0.2,0.5,0.5v1c0,0.3-0.2,0.5-0.5,0.5h-8c-0.3,0-0.5-0.2-0.5-0.5v-1C26.5,14.5,26.7,14.3,27,14.3z"/>
	
		<linearGradient id="SVGID_00000142136091737617719660000004520645670615347859_" gradientUnits="userSpaceOnUse" x1="81.0045" y1="632.854" x2="80.9948" y2="635.9932" gradientTransform="matrix(1 0 0 1 -50 -614)">
		<stop  offset="0" style="stop-color:#6FB8FF"/>
		<stop  offset="1" style="stop-color:#1E90FF"/>
	</linearGradient>
	<path style="fill:url(#SVGID_00000142136091737617719660000004520645670615347859_);" d="M27,18.8h8c0.6,0,1,0.4,1,1v1
		c0,0.6-0.4,1-1,1h-8c-0.6,0-1-0.4-1-1v-1C26,19.2,26.4,18.8,27,18.8z"/>
	
		<linearGradient id="SVGID_00000163061076416155529980000006129452029513513861_" gradientUnits="userSpaceOnUse" x1="76" y1="634.3" x2="86" y2="634.3" gradientTransform="matrix(1 0 0 1 -50 -614)">
		<stop  offset="0" style="stop-color:#FFFFFF"/>
		<stop  offset="1" style="stop-color:#FFFFFF;stop-opacity:0"/>
	</linearGradient>
	<path style="fill:none;stroke:url(#SVGID_00000163061076416155529980000006129452029513513861_);stroke-opacity:0.5;" d="M27,19.3
		h8c0.3,0,0.5,0.2,0.5,0.5v1c0,0.3-0.2,0.5-0.5,0.5h-8c-0.3,0-0.5-0.2-0.5-0.5v-1C26.5,19.5,26.7,19.3,27,19.3z"/>
	
		<linearGradient id="SVGID_00000144332992720790969470000005079120709832571575_" gradientUnits="userSpaceOnUse" x1="81.0045" y1="637.854" x2="80.9948" y2="640.9932" gradientTransform="matrix(1 0 0 1 -50 -614)">
		<stop  offset="0" style="stop-color:#6FB8FF"/>
		<stop  offset="1" style="stop-color:#1E90FF"/>
	</linearGradient>
	<path style="fill:url(#SVGID_00000144332992720790969470000005079120709832571575_);" d="M27,23.8h8c0.6,0,1,0.4,1,1v1
		c0,0.6-0.4,1-1,1h-8c-0.6,0-1-0.4-1-1v-1C26,24.2,26.4,23.8,27,23.8z"/>
	
		<linearGradient id="SVGID_00000139288942342129834530000014639246772671152316_" gradientUnits="userSpaceOnUse" x1="76" y1="639.3" x2="86" y2="639.3" gradientTransform="matrix(1 0 0 1 -50 -614)">
		<stop  offset="0" style="stop-color:#FFFFFF"/>
		<stop  offset="1" style="stop-color:#FFFFFF;stop-opacity:0"/>
	</linearGradient>
	<path style="fill:none;stroke:url(#SVGID_00000139288942342129834530000014639246772671152316_);stroke-opacity:0.5;" d="M27,24.3
		h8c0.3,0,0.5,0.2,0.5,0.5v1c0,0.3-0.2,0.5-0.5,0.5h-8c-0.3,0-0.5-0.2-0.5-0.5v-1C26.5,24.5,26.7,24.3,27,24.3z"/>
	
		<linearGradient id="SVGID_00000056402433084324054000000007953365796978603139_" gradientUnits="userSpaceOnUse" x1="81.0045" y1="622.854" x2="80.9948" y2="625.9932" gradientTransform="matrix(1 0 0 1 -50 -614)">
		<stop  offset="0" style="stop-color:#6FB8FF"/>
		<stop  offset="1" style="stop-color:#1E90FF"/>
	</linearGradient>
	<path style="fill:url(#SVGID_00000056402433084324054000000007953365796978603139_);" d="M27,8.8h8c0.6,0,1,0.4,1,1v1
		c0,0.6-0.4,1-1,1h-8c-0.6,0-1-0.4-1-1v-1C26,9.2,26.4,8.8,27,8.8z"/>
	
		<linearGradient id="SVGID_00000141446054397753623860000008451886884107667096_" gradientUnits="userSpaceOnUse" x1="76" y1="624.3" x2="86" y2="624.3" gradientTransform="matrix(1 0 0 1 -50 -614)">
		<stop  offset="0" style="stop-color:#FFFFFF"/>
		<stop  offset="1" style="stop-color:#FFFFFF;stop-opacity:0"/>
	</linearGradient>
	<path style="fill:none;stroke:url(#SVGID_00000141446054397753623860000008451886884107667096_);stroke-opacity:0.5;" d="M27,9.3h8
		c0.3,0,0.5,0.2,0.5,0.5v1c0,0.3-0.2,0.5-0.5,0.5h-8c-0.3,0-0.5-0.2-0.5-0.5v-1C26.5,9.5,26.7,9.3,27,9.3z"/>
</g>
<g>
	
		<linearGradient id="SVGID_00000013892168821793608030000004058170714435993503_" gradientUnits="userSpaceOnUse" x1="167.689" y1="-522.5112" x2="167.6793" y2="-519.3721" gradientTransform="matrix(6.123234e-17 1 -1 6.123234e-17 -500.8926 -162.2246)">
		<stop  offset="0" style="stop-color:#6FB8FF"/>
		<stop  offset="1" style="stop-color:#1E90FF"/>
	</linearGradient>
	<path style="fill:url(#SVGID_00000013892168821793608030000004058170714435993503_);" d="M21.7,1.5v8c0,0.6-0.4,1-1,1h-1
		c-0.6,0-1-0.4-1-1v-8c0-0.6,0.4-1,1-1h1C21.3,0.5,21.7,0.9,21.7,1.5z"/>
	
		<linearGradient id="SVGID_00000132051312457368823030000010328800531724586145_" gradientUnits="userSpaceOnUse" x1="162.7246" y1="-521.0676" x2="172.7246" y2="-521.0676" gradientTransform="matrix(6.123234e-17 1 -1 6.123234e-17 -500.8926 -161.2246)">
		<stop  offset="0" style="stop-color:#FFFFFF"/>
		<stop  offset="1" style="stop-color:#FFFFFF;stop-opacity:0"/>
	</linearGradient>
	<path style="fill:none;stroke:url(#SVGID_00000132051312457368823030000010328800531724586145_);stroke-opacity:0.5;" d="M21.2,1.5
		v8c0,0.3-0.2,0.5-0.5,0.5h-1c-0.3,0-0.5-0.2-0.5-0.5v-8c0-0.3,0.2-0.5,0.5-0.5h1C21,1,21.2,1.2,21.2,1.5z"/>
	
		<linearGradient id="SVGID_00000119106393643365433380000000242102892254942122_" gradientUnits="userSpaceOnUse" x1="161.689" y1="-523.5112" x2="161.6793" y2="-520.3721" gradientTransform="matrix(6.123234e-17 1 -1 6.123234e-17 -506.8926 -156.2246)">
		<stop  offset="0" style="stop-color:#6FB8FF"/>
		<stop  offset="1" style="stop-color:#1E90FF"/>
	</linearGradient>
	<path style="fill:url(#SVGID_00000119106393643365433380000000242102892254942122_);" d="M16.7,1.5v8c0,0.6-0.4,1-1,1h-1
		c-0.6,0-1-0.4-1-1v-8c0-0.6,0.4-1,1-1h1C16.3,0.5,16.7,0.9,16.7,1.5z"/>
	
		<linearGradient id="SVGID_00000029006349700181161840000005041798787214736299_" gradientUnits="userSpaceOnUse" x1="156.7246" y1="-522.0676" x2="166.7246" y2="-522.0676" gradientTransform="matrix(6.123234e-17 1 -1 6.123234e-17 -506.8926 -155.2246)">
		<stop  offset="0" style="stop-color:#FFFFFF"/>
		<stop  offset="1" style="stop-color:#FFFFFF;stop-opacity:0"/>
	</linearGradient>
	<path style="fill:none;stroke:url(#SVGID_00000029006349700181161840000005041798787214736299_);stroke-opacity:0.5;" d="M16.2,1.5
		v8c0,0.3-0.2,0.5-0.5,0.5h-1c-0.3,0-0.5-0.2-0.5-0.5v-8c0-0.3,0.2-0.5,0.5-0.5h1C16,1,16.2,1.2,16.2,1.5z"/>
	
		<linearGradient id="SVGID_00000123422783309527228780000015369888709133737912_" gradientUnits="userSpaceOnUse" x1="155.689" y1="-524.5111" x2="155.6793" y2="-521.372" gradientTransform="matrix(6.123234e-17 1 -1 6.123234e-17 -512.8926 -150.2246)">
		<stop  offset="0" style="stop-color:#6FB8FF"/>
		<stop  offset="1" style="stop-color:#1E90FF"/>
	</linearGradient>
	<path style="fill:url(#SVGID_00000123422783309527228780000015369888709133737912_);" d="M11.7,1.5v8c0,0.6-0.4,1-1,1h-1
		c-0.6,0-1-0.4-1-1v-8c0-0.6,0.4-1,1-1h1C11.3,0.5,11.7,0.9,11.7,1.5z"/>
	
		<linearGradient id="SVGID_00000106142165808123561150000008602961520916946856_" gradientUnits="userSpaceOnUse" x1="150.7246" y1="-523.0676" x2="160.7246" y2="-523.0676" gradientTransform="matrix(6.123234e-17 1 -1 6.123234e-17 -512.8926 -149.2246)">
		<stop  offset="0" style="stop-color:#FFFFFF"/>
		<stop  offset="1" style="stop-color:#FFFFFF;stop-opacity:0"/>
	</linearGradient>
	<path style="fill:none;stroke:url(#SVGID_00000106142165808123561150000008602961520916946856_);stroke-opacity:0.5;" d="M11.2,1.5
		v8c0,0.3-0.2,0.5-0.5,0.5h-1c-0.3,0-0.5-0.2-0.5-0.5v-8C9.2,1.2,9.4,1,9.7,1h1C11,1,11.2,1.2,11.2,1.5z"/>
	
		<linearGradient id="SVGID_00000074433002173483686260000011722945185270999684_" gradientUnits="userSpaceOnUse" x1="173.6889" y1="-521.5112" x2="173.6792" y2="-518.3721" gradientTransform="matrix(6.123234e-17 1 -1 6.123234e-17 -494.8926 -168.2246)">
		<stop  offset="0" style="stop-color:#6FB8FF"/>
		<stop  offset="1" style="stop-color:#1E90FF"/>
	</linearGradient>
	<path style="fill:url(#SVGID_00000074433002173483686260000011722945185270999684_);" d="M26.7,1.5v8c0,0.6-0.4,1-1,1h-1
		c-0.6,0-1-0.4-1-1v-8c0-0.6,0.4-1,1-1h1C26.3,0.5,26.7,0.9,26.7,1.5z"/>
	
		<linearGradient id="SVGID_00000093868917835426406320000011691172899891341497_" gradientUnits="userSpaceOnUse" x1="168.7246" y1="-520.0676" x2="178.7246" y2="-520.0676" gradientTransform="matrix(6.123234e-17 1 -1 6.123234e-17 -494.8926 -167.2246)">
		<stop  offset="0" style="stop-color:#FFFFFF"/>
		<stop  offset="1" style="stop-color:#FFFFFF;stop-opacity:0"/>
	</linearGradient>
	<path style="fill:none;stroke:url(#SVGID_00000093868917835426406320000011691172899891341497_);stroke-opacity:0.5;" d="M26.2,1.5
		v8c0,0.3-0.2,0.5-0.5,0.5h-1c-0.3,0-0.5-0.2-0.5-0.5v-8c0-0.3,0.2-0.5,0.5-0.5h1C26,1,26.2,1.2,26.2,1.5z"/>
</g>
<g>
	
		<linearGradient id="SVGID_00000125576395643646808360000006786009598491489712_" gradientUnits="userSpaceOnUse" x1="167.689" y1="-497.5111" x2="167.6793" y2="-494.372" gradientTransform="matrix(6.123234e-17 1 -1 6.123234e-17 -475.8926 -137.2246)">
		<stop  offset="0" style="stop-color:#6FB8FF"/>
		<stop  offset="1" style="stop-color:#1E90FF"/>
	</linearGradient>
	<path style="fill:url(#SVGID_00000125576395643646808360000006786009598491489712_);" d="M21.7,26.5v8c0,0.6-0.4,1-1,1h-1
		c-0.6,0-1-0.4-1-1v-8c0-0.6,0.4-1,1-1h1C21.3,25.5,21.7,25.9,21.7,26.5z"/>
	
		<linearGradient id="SVGID_00000049207845485825783260000007071139777949657521_" gradientUnits="userSpaceOnUse" x1="162.7246" y1="-496.0676" x2="172.7246" y2="-496.0676" gradientTransform="matrix(6.123234e-17 1 -1 6.123234e-17 -475.8926 -136.2246)">
		<stop  offset="0" style="stop-color:#FFFFFF"/>
		<stop  offset="1" style="stop-color:#FFFFFF;stop-opacity:0"/>
	</linearGradient>
	<path style="fill:none;stroke:url(#SVGID_00000049207845485825783260000007071139777949657521_);stroke-opacity:0.5;" d="
		M21.2,26.5v8c0,0.3-0.2,0.5-0.5,0.5h-1c-0.3,0-0.5-0.2-0.5-0.5v-8c0-0.3,0.2-0.5,0.5-0.5h1C21,26,21.2,26.2,21.2,26.5z"/>
	
		<linearGradient id="SVGID_00000163067360845757765300000008077041083780394170_" gradientUnits="userSpaceOnUse" x1="161.689" y1="-498.5111" x2="161.6793" y2="-495.372" gradientTransform="matrix(6.123234e-17 1 -1 6.123234e-17 -481.8926 -131.2246)">
		<stop  offset="0" style="stop-color:#6FB8FF"/>
		<stop  offset="1" style="stop-color:#1E90FF"/>
	</linearGradient>
	<path style="fill:url(#SVGID_00000163067360845757765300000008077041083780394170_);" d="M16.7,26.5v8c0,0.6-0.4,1-1,1h-1
		c-0.6,0-1-0.4-1-1v-8c0-0.6,0.4-1,1-1h1C16.3,25.5,16.7,25.9,16.7,26.5z"/>
	
		<linearGradient id="SVGID_00000019680251436740782400000004112087242723253379_" gradientUnits="userSpaceOnUse" x1="156.7246" y1="-497.0676" x2="166.7246" y2="-497.0676" gradientTransform="matrix(6.123234e-17 1 -1 6.123234e-17 -481.8926 -130.2246)">
		<stop  offset="0" style="stop-color:#FFFFFF"/>
		<stop  offset="1" style="stop-color:#FFFFFF;stop-opacity:0"/>
	</linearGradient>
	<path style="fill:none;stroke:url(#SVGID_00000019680251436740782400000004112087242723253379_);stroke-opacity:0.5;" d="
		M16.2,26.5v8c0,0.3-0.2,0.5-0.5,0.5h-1c-0.3,0-0.5-0.2-0.5-0.5v-8c0-0.3,0.2-0.5,0.5-0.5h1C16,26,16.2,26.2,16.2,26.5z"/>
	
		<linearGradient id="SVGID_00000151510481979675282700000004774815924855199874_" gradientUnits="userSpaceOnUse" x1="155.689" y1="-499.5111" x2="155.6793" y2="-496.372" gradientTransform="matrix(6.123234e-17 1 -1 6.123234e-17 -487.8926 -125.2246)">
		<stop  offset="0" style="stop-color:#6FB8FF"/>
		<stop  offset="1" style="stop-color:#1E90FF"/>
	</linearGradient>
	<path style="fill:url(#SVGID_00000151510481979675282700000004774815924855199874_);" d="M11.7,26.5v8c0,0.6-0.4,1-1,1h-1
		c-0.6,0-1-0.4-1-1v-8c0-0.6,0.4-1,1-1h1C11.3,25.5,11.7,25.9,11.7,26.5z"/>
	
		<linearGradient id="SVGID_00000036959044150841069110000014192296190849304987_" gradientUnits="userSpaceOnUse" x1="150.7246" y1="-498.0676" x2="160.7246" y2="-498.0676" gradientTransform="matrix(6.123234e-17 1 -1 6.123234e-17 -487.8926 -124.2246)">
		<stop  offset="0" style="stop-color:#FFFFFF"/>
		<stop  offset="1" style="stop-color:#FFFFFF;stop-opacity:0"/>
	</linearGradient>
	<path style="fill:none;stroke:url(#SVGID_00000036959044150841069110000014192296190849304987_);stroke-opacity:0.5;" d="
		M11.2,26.5v8c0,0.3-0.2,0.5-0.5,0.5h-1c-0.3,0-0.5-0.2-0.5-0.5v-8c0-0.3,0.2-0.5,0.5-0.5h1C11,26,11.2,26.2,11.2,26.5z"/>
	
		<linearGradient id="SVGID_00000008134726537933924390000014380886895197889188_" gradientUnits="userSpaceOnUse" x1="173.6889" y1="-496.5111" x2="173.6792" y2="-493.372" gradientTransform="matrix(6.123234e-17 1 -1 6.123234e-17 -469.8926 -143.2246)">
		<stop  offset="0" style="stop-color:#6FB8FF"/>
		<stop  offset="1" style="stop-color:#1E90FF"/>
	</linearGradient>
	<path style="fill:url(#SVGID_00000008134726537933924390000014380886895197889188_);" d="M26.7,26.5v8c0,0.6-0.4,1-1,1h-1
		c-0.6,0-1-0.4-1-1v-8c0-0.6,0.4-1,1-1h1C26.3,25.5,26.7,25.9,26.7,26.5z"/>
	
		<linearGradient id="SVGID_00000031929484521561196200000010042746684194097826_" gradientUnits="userSpaceOnUse" x1="168.7246" y1="-495.0676" x2="178.7246" y2="-495.0676" gradientTransform="matrix(6.123234e-17 1 -1 6.123234e-17 -469.8926 -142.2246)">
		<stop  offset="0" style="stop-color:#FFFFFF"/>
		<stop  offset="1" style="stop-color:#FFFFFF;stop-opacity:0"/>
	</linearGradient>
	<path style="fill:none;stroke:url(#SVGID_00000031929484521561196200000010042746684194097826_);stroke-opacity:0.5;" d="
		M26.2,26.5v8c0,0.3-0.2,0.5-0.5,0.5h-1c-0.3,0-0.5-0.2-0.5-0.5v-8c0-0.3,0.2-0.5,0.5-0.5h1C26,26,26.2,26.2,26.2,26.5z"/>
</g>
<g>
	
		<linearGradient id="SVGID_00000069374803222004664840000002016646605183759536_" gradientUnits="userSpaceOnUse" x1="68.1446" y1="618.4219" x2="67.8317" y2="647.8009" gradientTransform="matrix(1 0 0 1 -50 -614)">
		<stop  offset="0" style="stop-color:#6FB8FF"/>
		<stop  offset="1" style="stop-color:#1E90FF"/>
	</linearGradient>
	<path style="fill:url(#SVGID_00000069374803222004664840000002016646605183759536_);" d="M9.9,4h16.2c3,0,5.4,2.4,5.4,5.4v17.3
		c0,3-2.4,5.4-5.4,5.4H9.9c-3,0-5.4-2.4-5.4-5.4V9.4C4.5,6.3,7,4,9.9,4z"/>
	
		<linearGradient id="SVGID_00000096020601791834491180000010202325530145066140_" gradientUnits="userSpaceOnUse" x1="68" y1="617.9554" x2="68" y2="645.9554" gradientTransform="matrix(1 0 0 1 -50 -614)">
		<stop  offset="0" style="stop-color:#FFFFFF"/>
		<stop  offset="1" style="stop-color:#FFFFFF;stop-opacity:0"/>
	</linearGradient>
	<path style="fill:none;stroke:url(#SVGID_00000096020601791834491180000010202325530145066140_);stroke-opacity:0.5;" d="M9.9,4.5
		h16.2c2.7,0,4.8,2.2,4.8,4.9v17.3c0,2.7-2.2,4.9-4.8,4.9H9.9c-2.7,0-4.8-2.2-4.8-4.9V9.4C5,6.7,7.2,4.5,9.9,4.5z"/>
</g>
</svg>
