<?xml version="1.0" encoding="utf-8"?>
<!-- Generator: Adobe Illustrator 26.3.1, SVG Export Plug-In . SVG Version: 6.00 Build 0)  -->
<svg version="1.1" id="eUtfKsV2qQa1" text-rendering="geometricPrecision" shape-rendering="geometricPrecision"
	 xmlns="http://www.w3.org/2000/svg" xmlns:xlink="http://www.w3.org/1999/xlink" x="0px" y="0px" viewBox="0 0 36 36"
	 style="enable-background:new 0 0 36 36;" xml:space="preserve">
<style type="text/css">
	.st0{fill-rule:evenodd;clip-rule:evenodd;fill:url(#SVGID_1_);}
	.st1{fill:url(#SVGID_00000111159562961943918190000017105850634510242952_);}
	.st2{fill:url(#SVGID_00000044160530221338438120000003182384553554013332_);}
	.st3{fill-rule:evenodd;clip-rule:evenodd;fill:url(#SVGID_00000115511217689035387390000002422248706914400913_);}
	.st4{fill:none;stroke:url(#SVGID_00000079465249711743692640000013714030656000545464_);stroke-opacity:0.5;}
	.st5{fill-rule:evenodd;clip-rule:evenodd;fill:url(#SVGID_00000166660713657515869250000011987727059857404588_);}
	.st6{fill:none;stroke:url(#SVGID_00000167396076758632997390000004421615011427134640_);stroke-opacity:0.5;}
</style>
<g>
	
		<linearGradient id="SVGID_1_" gradientUnits="userSpaceOnUse" x1="76.2484" y1="-118.7593" x2="76.0393" y2="-138.8195" gradientTransform="matrix(1 0 0 -1 -50 -102)">
		<stop  offset="0" style="stop-color:#6FB8FF"/>
		<stop  offset="1" style="stop-color:#1E90FF"/>
	</linearGradient>
	<path class="st0" d="M20.1,17c-0.8-0.8-2-0.8-2.8,0c-0.8,0.8-0.8,2,0,2.8l11.5,11.5l-0.5,1.3c-0.1,0.4,0,0.8,0.2,1.1l1.6,1.6
		c0.5,0.5,1.4,0.3,1.6-0.4l0.7-1.9c0.1-0.3,0.3-0.5,0.6-0.6l1.9-0.7c0.7-0.3,0.9-1.1,0.4-1.6l-1.6-1.6c-0.3-0.3-0.7-0.4-1.1-0.2
		l-0.9,0.3L20.1,17z"/>
	
		<linearGradient id="SVGID_00000165193643107849424220000004187684533759657403_" gradientUnits="userSpaceOnUse" x1="68.0616" y1="-103.0448" x2="67.6855" y2="-139.6651" gradientTransform="matrix(1 0 0 -1 -50 -102)">
		<stop  offset="0" style="stop-color:#6FB8FF"/>
		<stop  offset="1" style="stop-color:#1E90FF"/>
	</linearGradient>
	<path style="fill:url(#SVGID_00000165193643107849424220000004187684533759657403_);" d="M26.2,33.3c-2.5,1.4-5.3,2.1-8.4,2.1
		c-9.7,0-17.5-7.8-17.5-17.5c0-9.7,7.8-17.5,17.5-17.5c9.7,0,17.5,7.8,17.5,17.5c0,3-0.8,5.8-2.1,8.3c-0.3,0-0.7,0-1,0.1L30,24.1
		c0.9-1.8,1.5-3.9,1.5-6.2c0-7.5-6.1-13.6-13.6-13.6S4.3,10.4,4.3,17.9c0,7.5,6.1,13.6,13.6,13.6c2.4,0,4.6-0.6,6.6-1.7l2,2l0,0.1
		C26.3,32.4,26.2,32.8,26.2,33.3z"/>
	
		<linearGradient id="SVGID_00000101090229865767901680000016999701386686746774_" gradientUnits="userSpaceOnUse" x1="68.0616" y1="-103.0448" x2="67.6855" y2="-139.6651" gradientTransform="matrix(1 0 0 -1 -50 -102)">
		<stop  offset="0" style="stop-color:#6FB8FF"/>
		<stop  offset="1" style="stop-color:#1E90FF"/>
	</linearGradient>
	<path style="fill:url(#SVGID_00000101090229865767901680000016999701386686746774_);" d="M27.7,21.7c0.5-1.2,0.7-2.5,0.7-3.8
		c0-5.8-4.7-10.5-10.5-10.5S7.4,12.1,7.4,17.9s4.7,10.5,10.5,10.5c1.5,0,3-0.3,4.3-0.9l-1.8-1.9c-0.4-0.4-0.7-0.9-0.9-1.4
		c-0.5,0.1-1,0.2-1.5,0.2c-3.6,0-6.5-2.9-6.5-6.5s2.9-6.5,6.5-6.5c3.6,0,6.5,2.9,6.5,6.5c0,0.4,0,0.7-0.1,1.1c0.6,0.2,1.2,0.5,1.7,1
		L27.7,21.7z"/>
	
		<linearGradient id="SVGID_00000178923575150651324290000008108995391795114626_" gradientUnits="userSpaceOnUse" x1="68.0616" y1="-103.0448" x2="67.6855" y2="-139.6651" gradientTransform="matrix(1 0 0 -1 -50 -102)">
		<stop  offset="0" style="stop-color:#6FB8FF"/>
		<stop  offset="1" style="stop-color:#1E90FF"/>
	</linearGradient>
	<path style="fill-rule:evenodd;clip-rule:evenodd;fill:url(#SVGID_00000178923575150651324290000008108995391795114626_);" d="
		M21.1,19.4c-0.3,0.2-0.5,0.4-0.7,0.6c-0.3,0.3-0.5,0.6-0.7,1c-0.5,0.3-1.1,0.4-1.7,0.4c-1.9,0-3.5-1.6-3.5-3.5s1.6-3.5,3.5-3.5
		s3.5,1.6,3.5,3.5C21.4,18.5,21.3,19,21.1,19.4z"/>
	
		<linearGradient id="SVGID_00000108295714450697000270000007779355748066148250_" gradientUnits="userSpaceOnUse" x1="67.8883" y1="-102.4136" x2="67.8883" y2="-137.4137" gradientTransform="matrix(1 0 0 -1 -50 -102)">
		<stop  offset="0" style="stop-color:#FFFFFF"/>
		<stop  offset="1" style="stop-color:#FFFFFF;stop-opacity:0"/>
	</linearGradient>
	<path style="fill:none;stroke:url(#SVGID_00000108295714450697000270000007779355748066148250_);stroke-opacity:0.5;" d="
		M26.3,19.6L26.3,19.6c-0.4-0.4-0.9-0.8-1.5-1c0-0.2,0-0.5,0-0.7c0-3.9-3.1-7-7-7s-7,3.1-7,7s3.1,7,7,7c0.4,0,0.8,0,1.2-0.1
		c0.2,0.4,0.5,0.8,0.9,1.2c0,0,0,0,0,0l1.3,1.3c-1.1,0.4-2.2,0.6-3.4,0.6c-5.5,0-10-4.5-10-10s4.5-10,10-10c5.5,0,10,4.5,10,10
		c0,1-0.1,2-0.4,2.9L26.3,19.6z M25.7,33c-2.3,1.2-5,1.9-7.8,1.9c-9.4,0-17-7.6-17-17c0-9.4,7.6-17,17-17c9.4,0,17,7.6,17,17
		c0,2.8-0.7,5.5-1.9,7.8c-0.2,0-0.4,0-0.6,0L30.6,24c0.9-1.8,1.4-3.9,1.4-6.1c0-7.8-6.3-14.1-14.1-14.1c-7.8,0-14.1,6.3-14.1,14.1
		c0,7.8,6.3,14.1,14.1,14.1c2.3,0,4.6-0.6,6.5-1.6l1.5,1.5C25.8,32.3,25.7,32.6,25.7,33z M20.7,19.1c-0.2,0.2-0.5,0.4-0.7,0.6
		c-0.3,0.3-0.5,0.6-0.7,1c-0.4,0.2-0.9,0.3-1.3,0.3c-1.7,0-3-1.3-3-3s1.3-3,3-3c1.7,0,3,1.3,3,3C20.9,18.3,20.8,18.7,20.7,19.1z"/>
	
		<linearGradient id="SVGID_00000132788589777413088220000015301005441039409579_" gradientUnits="userSpaceOnUse" x1="76.2484" y1="-118.7593" x2="76.0393" y2="-138.8195" gradientTransform="matrix(1 0 0 -1 -50 -102)">
		<stop  offset="0" style="stop-color:#6FB8FF"/>
		<stop  offset="1" style="stop-color:#1E90FF"/>
	</linearGradient>
	<path style="fill-rule:evenodd;clip-rule:evenodd;fill:url(#SVGID_00000132788589777413088220000015301005441039409579_);" d="
		M20.1,17c-0.8-0.8-2-0.8-2.8,0c-0.8,0.8-0.8,2,0,2.8l11.5,11.5l-0.5,1.3c-0.1,0.4,0,0.8,0.2,1.1l1.6,1.6c0.5,0.5,1.4,0.3,1.6-0.4
		l0.7-1.9c0.1-0.3,0.3-0.5,0.6-0.6l1.9-0.7c0.7-0.3,0.9-1.1,0.4-1.6l-1.6-1.6c-0.3-0.3-0.7-0.4-1.1-0.2l-0.9,0.3L20.1,17z"/>
	
		<linearGradient id="SVGID_00000052074954446447495320000001248668066805915017_" gradientUnits="userSpaceOnUse" x1="76.1664" y1="-118.4137" x2="76.1664" y2="-137.5862" gradientTransform="matrix(1 0 0 -1 -50 -102)">
		<stop  offset="0" style="stop-color:#FFFFFF"/>
		<stop  offset="1" style="stop-color:#FFFFFF;stop-opacity:0"/>
	</linearGradient>
	<path style="fill:none;stroke:url(#SVGID_00000052074954446447495320000001248668066805915017_);stroke-opacity:0.5;" d="
		M29.2,31.5l0.1-0.3l-0.2-0.2L17.7,19.5c-0.6-0.6-0.6-1.5,0-2.1c0.6-0.6,1.5-0.6,2.1,0L31.4,29l0.2,0.2l0.3-0.1l0.9-0.3
		c0.2-0.1,0.4,0,0.5,0.1l1.6,1.6c0.3,0.3,0.2,0.7-0.2,0.8L32.9,32c-0.4,0.2-0.7,0.5-0.9,0.9l-0.7,1.9c-0.1,0.3-0.6,0.4-0.8,0.2
		l-1.6-1.6c-0.1-0.1-0.2-0.3-0.1-0.5L29.2,31.5z"/>
</g>
</svg>
